<svg xmlns="http://www.w3.org/2000/svg" width="62.828" height="82.462" viewBox="0 0 62.828 82.462">
  <path id="Caminho_1826" data-name="Caminho 1826" d="M58.975,28.487H55.048V20.634a19.634,19.634,0,1,0-39.268,0v7.854H11.854A7.877,7.877,0,0,0,4,36.341V75.608a7.877,7.877,0,0,0,7.854,7.854H58.975a7.877,7.877,0,0,0,7.854-7.854V36.341A7.877,7.877,0,0,0,58.975,28.487ZM23.241,20.634a12.173,12.173,0,0,1,24.346,0v7.854H23.241ZM51.121,59.9H39.341v11.78H31.487V59.9H19.707V52.048h11.78V40.268h7.854v11.78h11.78Z" transform="translate(-4 -1)" fill="#fff"/>
</svg>
