<svg xmlns="http://www.w3.org/2000/svg" width="71.262" height="86.851" viewBox="0 0 71.262 86.851">
  <path id="Caminho_1784" data-name="Caminho 1784" d="M66.354,62.627V40.358c0-13.673-7.3-25.12-20.042-28.149V9.181a6.681,6.681,0,1,0-13.362,0v3.029C20.168,15.238,12.908,26.64,12.908,40.358V62.627L4,71.535v4.454H75.262V71.535Zm-22.269,0H35.177V53.72h8.908Zm0-17.816H35.177V27h8.908ZM39.631,89.351a8.934,8.934,0,0,0,8.908-8.908H30.723A8.9,8.9,0,0,0,39.631,89.351Z" transform="translate(-4 -2.5)" fill="#fff"/>
</svg>
