<svg xmlns="http://www.w3.org/2000/svg" width="72.734" height="62.82" viewBox="0 0 72.734 62.82">
  <g id="Grupo_4727" data-name="Grupo 4727" transform="translate(-1634.49 -386.969)">
    <circle id="Elipse_273" data-name="Elipse 273" cx="13.225" cy="13.225" r="13.225" transform="translate(1647.715 396.888)" fill="#fff"/>
    <path id="Caminho_1788" data-name="Caminho 1788" d="M27.45,44.982C18.623,44.982,1,49.412,1,58.207V64.82H53.9V58.207C53.9,49.412,36.278,44.982,27.45,44.982ZM53.107,13.109,47.553,18.7a10.968,10.968,0,0,1,0,12.861l5.555,5.588c6.679-6.679,6.679-16.763,0-24.037ZM64.051,2,58.662,7.389c9.158,9.985,9.158,25,0,35.51l5.389,5.389C76.946,35.427,76.979,15.39,64.051,2Z" transform="translate(1633.49 384.969)" fill="#fff"/>
  </g>
</svg>
