<svg xmlns="http://www.w3.org/2000/svg" width="91.871" height="65.02" viewBox="0 0 91.871 65.02">
  <path id="Caminho_1720" data-name="Caminho 1720" d="M91.343,25.826a2.363,2.363,0,0,0-1.823-.868H80.579c-2.206-5.82-5.081-11.522-8.348-13.674-11.3-7.436-41.283-7.436-52.586,0-3.27,2.155-6.132,7.864-8.351,13.674H2.353a2.354,2.354,0,0,0-2.3,2.83L1.374,34.2a2.351,2.351,0,0,0,2.3,1.875H6.326A15.884,15.884,0,0,0,2.513,46.461,15.55,15.55,0,0,0,7.426,58.137c.035.031.071.052.1.082V67.2a3.531,3.531,0,0,0,3.528,3.528h8.247A3.531,3.531,0,0,0,22.834,67.2V63.59h46.2V67.2a3.531,3.531,0,0,0,3.528,3.528h8.247A3.534,3.534,0,0,0,84.34,67.2V58.4a16.139,16.139,0,0,0,1.03-22.321H88.2A2.344,2.344,0,0,0,90.5,34.2l1.327-6.415A2.371,2.371,0,0,0,91.343,25.826ZM23.519,17.177c9.009-5.93,35.823-5.93,44.828,0,1.75,1.148,4,5.789,6.064,11.472H17.459C19.517,22.968,21.769,18.329,23.519,17.177ZM12.966,47.345a6.942,6.942,0,1,1,6.942,6.942A6.941,6.941,0,0,1,12.966,47.345Zm59.088,6.942A6.941,6.941,0,1,1,79,47.345,6.943,6.943,0,0,1,72.054,54.287Z" transform="translate(0 -5.707)" fill="#fff"/>
</svg>
