<svg xmlns="http://www.w3.org/2000/svg" width="11" height="14.438" viewBox="0 0 11 14.438">
  <path id="Caminho_1792" data-name="Caminho 1792" d="M13.625,5.813h-.687V4.438a3.438,3.438,0,0,0-6.875,0V5.813H5.375A1.379,1.379,0,0,0,4,7.188v6.875a1.379,1.379,0,0,0,1.375,1.375h8.25A1.379,1.379,0,0,0,15,14.063V7.188A1.379,1.379,0,0,0,13.625,5.813ZM7.369,4.438a2.131,2.131,0,0,1,4.263,0V5.813H7.369Zm4.881,6.875H10.188v2.063H8.813V11.313H6.75V9.938H8.813V7.875h1.375V9.938H12.25Z" transform="translate(-4 -1)" fill="#fff"/>
</svg>
