<svg xmlns="http://www.w3.org/2000/svg" width="12.531" height="12.531" viewBox="0 0 12.531 12.531">
  <path id="Caminho_1791" data-name="Caminho 1791" d="M14.834,11.7a7.908,7.908,0,0,1-2.485-.4.71.71,0,0,0-.71.167L10.107,13A10.494,10.494,0,0,1,5.52,8.423L7.051,6.884a.683.683,0,0,0,.174-.7,7.908,7.908,0,0,1-.4-2.485.7.7,0,0,0-.7-.7H3.7a.7.7,0,0,0-.7.7A11.833,11.833,0,0,0,14.834,15.53a.7.7,0,0,0,.7-.7V12.4A.7.7,0,0,0,14.834,11.7ZM9.265,3V9.961l2.088-2.088H15.53V3Z" transform="translate(-3 -3.001)" fill="#0f0e0e"/>
</svg>
