<svg xmlns="http://www.w3.org/2000/svg" width="73.49" height="73.49" viewBox="0 0 73.49 73.49">
  <path id="Caminho_1791" data-name="Caminho 1791" d="M72.407,54.035a46.382,46.382,0,0,1-14.576-2.327,4.167,4.167,0,0,0-4.164.98L44.685,61.67A61.546,61.546,0,0,1,17.78,34.8l8.982-9.023a4.008,4.008,0,0,0,1.021-4.124A46.382,46.382,0,0,1,25.455,7.083,4.1,4.1,0,0,0,21.373,3H7.083A4.1,4.1,0,0,0,3,7.083,69.4,69.4,0,0,0,72.407,76.49a4.1,4.1,0,0,0,4.083-4.083V58.118A4.1,4.1,0,0,0,72.407,54.035ZM39.745,3V43.828L51.993,31.58h24.5V3Z" transform="translate(-3 -3)" fill="#fff"/>
</svg>
