<svg xmlns="http://www.w3.org/2000/svg" width="18" height="18" viewBox="0 0 18 18">
  <g id="Grupo_5897" data-name="Grupo 5897" transform="translate(-50 -514)">
    <g id="Grupo_5837" data-name="Grupo 5837" transform="translate(0 33)">
      <circle id="Elipse_379" data-name="Elipse 379" cx="9" cy="9" r="9" transform="translate(50 481)" fill="#fff"/>
      <path id="Caminho_2252" data-name="Caminho 2252" d="M6.174,0a6,6,0,0,1,6.174,5.811V5.219s-3.087,2.8-6.174,2.8A12.5,12.5,0,0,1,0,5.811V5.219C0,2.009,2.764,0,6.174,0Z" transform="translate(53 490.338)" fill="#047"/>
      <path id="Caminho_2253" data-name="Caminho 2253" d="M3.052,0A3.078,3.078,0,1,1,0,3.078,3.065,3.065,0,0,1,3.052,0Z" transform="translate(55.748 483.695)" fill="#047"/>
    </g>
    <g id="Grupo_5882" data-name="Grupo 5882">
      <g id="Caminho_2254" data-name="Caminho 2254" transform="translate(50.793 522.152)" fill="#047">
        <path d="M 5.976808071136475 2.781689882278442 L 0.5446764826774597 2.781689882278442 C 0.7791072726249695 1.485665440559387 1.907841801643372 0.4999999105930328 3.2607421875 0.4999999105930328 C 4.613642692565918 0.4999999105930328 5.742377281188965 1.485665440559387 5.976808071136475 2.781689882278442 Z" stroke="none"/>
        <path d="M 3.2607421875 1 C 2.369328022003174 1 1.596763134002686 1.523396253585815 1.228896617889404 2.281689882278442 L 5.292587280273438 2.281689882278442 C 4.924721240997314 1.523396253585815 4.152156352996826 1 3.2607421875 1 M 3.2607421875 0 C 5.061602115631104 0 6.521481990814209 1.469259977340698 6.521481990814209 3.281689882278442 L 2.384185791015625e-06 3.281689882278442 C 2.384185791015625e-06 1.469259977340698 1.459882259368896 0 3.2607421875 0 Z M 2.384185791015625e-06 3.281689882278442 C 2.384185791015625e-06 3.350555658340454 2.384185791015625e-06 3.37351655960083 2.384185791015625e-06 3.37351655960083 L 2.384185791015625e-06 3.281689882278442 Z M 6.521481990814209 3.281689882278442 L 6.521481990814209 3.504823207855225 C 6.521481990814209 3.504823207855225 6.521481990814209 3.449060440063477 6.521481990814209 3.281689882278442 Z" stroke="none" fill="#047"/>
      </g>
      <g id="Caminho_2255" data-name="Caminho 2255" transform="translate(52.256 518.795)" fill="#047">
        <path d="M 1.4580078125 2.416017770767212 C 0.929757833480835 2.416017770767212 0.4999978244304657 1.986257791519165 0.4999978244304657 1.4580078125 C 0.4999978244304657 0.929757833480835 0.929757833480835 0.4999978244304657 1.4580078125 0.4999978244304657 C 1.986257791519165 0.4999978244304657 2.416017770767212 0.929757833480835 2.416017770767212 1.4580078125 C 2.416017770767212 1.986257791519165 1.986257791519165 2.416017770767212 1.4580078125 2.416017770767212 Z" stroke="none"/>
        <path d="M 1.4580078125 0.9999978542327881 C 1.205457806587219 0.9999978542327881 0.9999978542327881 1.205457806587219 0.9999978542327881 1.4580078125 C 0.9999978542327881 1.710557818412781 1.205457806587219 1.916017770767212 1.4580078125 1.916017770767212 C 1.710557818412781 1.916017770767212 1.916017770767212 1.710557818412781 1.916017770767212 1.4580078125 C 1.916017770767212 1.205457806587219 1.710557818412781 0.9999978542327881 1.4580078125 0.9999978542327881 M 1.4580078125 -2.145767211914063e-06 C 2.263247728347778 -2.145767211914063e-06 2.916017770767212 0.6527678966522217 2.916017770767212 1.4580078125 C 2.916017770767212 2.263247728347778 2.263247728347778 2.916017770767212 1.4580078125 2.916017770767212 C 0.6527678966522217 2.916017770767212 -2.145767211914063e-06 2.263247728347778 -2.145767211914063e-06 1.4580078125 C -2.145767211914063e-06 0.6527678966522217 0.6527678966522217 -2.145767211914063e-06 1.4580078125 -2.145767211914063e-06 Z" stroke="none" fill="#047"/>
      </g>
      <g id="Caminho_2256" data-name="Caminho 2256" transform="translate(61.793 521.152)" fill="#047">
        <path d="M 4.560245513916016 2.076748371124268 L 0.5603628158569336 2.076748371124268 C 0.7829301357269287 1.172298431396484 1.595174789428711 0.4999983906745911 2.560304164886475 0.4999983906745911 C 3.525433540344238 0.4999983906745911 4.3376784324646 1.172298431396484 4.560245513916016 2.076748371124268 Z" stroke="none"/>
        <path d="M 2.560304164886475 0.9999984502792358 C 2.075254440307617 0.9999984502792358 1.6412034034729 1.224804878234863 1.354806423187256 1.576748371124268 L 3.765801906585693 1.576748371124268 C 3.479404926300049 1.224804878234863 3.045353889465332 0.9999984502792358 2.560304164886475 0.9999984502792358 M 2.560304164886475 -1.668930053710938e-06 C 3.974324226379395 -1.668930053710938e-06 5.120604038238525 1.153648376464844 5.120604038238525 2.576748371124268 L 4.291534423828125e-06 2.576748371124268 C 4.291534423828125e-06 1.153648376464844 1.146284103393555 -1.668930053710938e-06 2.560304164886475 -1.668930053710938e-06 Z M 4.291534423828125e-06 2.576748371124268 C 4.291534423828125e-06 2.630825042724609 4.291534423828125e-06 2.648854970932007 4.291534423828125e-06 2.648854970932007 L 4.291534423828125e-06 2.576748371124268 Z M 5.120604038238525 2.576748371124268 L 5.120604038238525 2.751952886581421 C 5.120604038238525 2.751952886581421 5.120604038238525 2.708167791366577 5.120604038238525 2.576748371124268 Z" stroke="none" fill="#047"/>
      </g>
      <g id="Caminho_2257" data-name="Caminho 2257" transform="translate(63.256 517.795)" fill="#047">
        <path d="M 1.22900390625 1.958003878593445 C 0.8270338773727417 1.958003878593445 0.5000039339065552 1.630973935127258 0.5000039339065552 1.22900390625 C 0.5000039339065552 0.8270338773727417 0.8270338773727417 0.5000039339065552 1.22900390625 0.5000039339065552 C 1.630973935127258 0.5000039339065552 1.958003878593445 0.8270338773727417 1.958003878593445 1.22900390625 C 1.958003878593445 1.630973935127258 1.630973935127258 1.958003878593445 1.22900390625 1.958003878593445 Z" stroke="none"/>
        <path d="M 1.22900390625 1.000003933906555 C 1.102733850479126 1.000003933906555 1.000003933906555 1.102733850479126 1.000003933906555 1.22900390625 C 1.000003933906555 1.355273962020874 1.102733850479126 1.458003878593445 1.22900390625 1.458003878593445 C 1.355273962020874 1.458003878593445 1.458003878593445 1.355273962020874 1.458003878593445 1.22900390625 C 1.458003878593445 1.102733850479126 1.355273962020874 1.000003933906555 1.22900390625 1.000003933906555 M 1.22900390625 3.814697265625e-06 C 1.907763957977295 3.814697265625e-06 2.458003997802734 0.5502438545227051 2.458003997802734 1.22900390625 C 2.458003997802734 1.907763957977295 1.907763957977295 2.458003997802734 1.22900390625 2.458003997802734 C 0.5502438545227051 2.458003997802734 3.814697265625e-06 1.907763957977295 3.814697265625e-06 1.22900390625 C 3.814697265625e-06 0.5502438545227051 0.5502438545227051 3.814697265625e-06 1.22900390625 3.814697265625e-06 Z" stroke="none" fill="#047"/>
      </g>
    </g>
  </g>
</svg>
