<svg id="Grupo_5817" data-name="Grupo 5817" xmlns="http://www.w3.org/2000/svg" width="25.453" height="22.457" viewBox="0 0 25.453 22.457">
  <path id="Caminho_1695" data-name="Caminho 1695" d="M12.353,16.421a2.243,2.243,0,0,0-.544-.933,2.1,2.1,0,0,0-2.373-.472L7.316,12.825,10.13,9.938l.666-.019a.234.234,0,0,0,.2-.119l.954-1.658a.25.25,0,0,0-.035-.3l-.824-.852a.23.23,0,0,0-.287-.037l-1.6.986a.245.245,0,0,0-.115.2l-.019.687-2.807,2.9L4.328,9.735A2.222,2.222,0,0,0,2.571,7.161,2.1,2.1,0,0,0,1.011,7.5a.249.249,0,0,0-.063.338.239.239,0,0,0,.08.076L2.1,8.533a.691.691,0,0,1,.092.9c-.191.351-.556.531-.794.394L.4,9.275a.231.231,0,0,0-.32.1A.25.25,0,0,0,.055,9.5,2.181,2.181,0,0,0,2.34,11.588a2.1,2.1,0,0,0,.712-.175L4.8,13.224l-.758.784-.172-.175a.48.48,0,0,0-.68,0l-.235.243a.5.5,0,0,0-.026.67L.146,17.622a.5.5,0,0,0-.015.688l.015.015.8.823a.46.46,0,0,0,.666.015l.015-.015,2.788-2.88a.46.46,0,0,0,.648-.027L5.294,16a.5.5,0,0,0,.015-.688l-.015-.015-.172-.178.753-.8,2.284,2.362a2.221,2.221,0,0,0,1.767,2.566,2.111,2.111,0,0,0,1.9-.638.249.249,0,0,0-.019-.344.233.233,0,0,0-.087-.051l-1.326-.368a.443.443,0,0,1-.278-.28.922.922,0,0,1-.024-.575c.1-.382.412-.655.676-.582l1.312.365a.214.214,0,0,0,.064,0,.239.239,0,0,0,.238-.24A.25.25,0,0,0,12.353,16.421ZM9.454,9.1a.248.248,0,0,0,.068-.166l.019-.65,1.335-.821.565.584-.777,1.378-.64.024a.232.232,0,0,0-.16.071L6.991,12.489l-.4-.419ZM1.288,18.8l-.808-.83,2.8-2.888.4.419.386.414Zm3.445-2.922-.311-.324-.12-.124L3.313,14.4l1.42,1.777.228-.541Zm.045-1.11-.4-.419.758-.784.4.419Zm6.1,1.171a.8.8,0,0,0-.214-.029,1.168,1.168,0,0,0-1.038.954,1.425,1.425,0,0,0,.045.889.909.909,0,0,0,.591.56l.876.243a1.653,1.653,0,0,1-2.308-.6,1.792,1.792,0,0,1-.193-1.29.249.249,0,0,0-.064-.226L3.269,10.946a.23.23,0,0,0-.278-.034,1.646,1.646,0,0,1-.789.2A1.685,1.685,0,0,1,.62,9.967l.537.309a.81.81,0,0,0,.41.11,1.228,1.228,0,0,0,1.024-.691,1.164,1.164,0,0,0-.275-1.568l-.685-.4A1.669,1.669,0,0,1,3.782,8.778a1.8,1.8,0,0,1,.055.979.249.249,0,0,0,.064.226l5.319,5.5a.23.23,0,0,0,.275.044,1.649,1.649,0,0,1,.789-.2,1.671,1.671,0,0,1,1.45.857Z" transform="translate(13.074 -6.92)" fill="#fff"/>
  <path id="Caminho_1696" data-name="Caminho 1696" d="M19.586,16.131a1.5,1.5,0,0,0-.746-1.114l-4.835-2.784a1.517,1.517,0,0,0-1.827.242l-.952.952a.7.7,0,0,1-.932.052A27.526,27.526,0,0,1,8.1,11.5a27.535,27.535,0,0,1-1.976-2.2.7.7,0,0,1,.052-.932l.952-.952a1.517,1.517,0,0,0,.242-1.827L4.583.759A1.515,1.515,0,0,0,2.2.444L.764,1.879c-1,1-1.018,2.834-.045,5.159a22.784,22.784,0,0,0,4.913,6.93,22.783,22.783,0,0,0,6.93,4.913A8.082,8.082,0,0,0,15.6,19.6a2.894,2.894,0,0,0,2.124-.763L19.156,17.4A1.5,1.5,0,0,0,19.586,16.131Zm-6.959-2.612,1.707.975,4.622,2.639c.239.138-.036-1.193,0-.919a.872.872,0,0,1-.164.638l-3.931-3.333H13.014C13.295,13.238,12.284,13.321,12.627,13.519ZM3.469,1.262c.274.036-.138-.239,0,0h0c2.625,6.381,2.985,4.98,2.7,5.261h0l.746.9L3.559,1.5l.677,1.125c.039,0-.806-1.37-.767-1.365Zm13.8,17.124c-.8.8-2.423.762-4.465-.092a22.142,22.142,0,0,1-6.726-4.776A22.142,22.142,0,0,1,1.3,6.793C.45,4.751.417,3.123,1.213,2.328L2.278,1.262,5.971,7.676l-.248.248a1.332,1.332,0,0,0-.1,1.78,28.169,28.169,0,0,0,2.022,2.248A28.185,28.185,0,0,0,9.9,13.974a1.332,1.332,0,0,0,1.78-.1l.226-.226,6.435,3.672-1.064,1.064Z" transform="translate(-0.001 2.859)" fill="#fff"/>
</svg>
