<svg xmlns="http://www.w3.org/2000/svg" width="22.4" height="20.677" viewBox="0 0 22.4 20.677">
  <g id="Grupo_6046" data-name="Grupo 6046" transform="translate(-1819 -813)">
    <rect id="Retângulo_2129" data-name="Retângulo 2129" width="22.4" height="20.677" rx="10.339" transform="translate(1819 813)" fill="#005b9e"/>
    <g id="baseline-date_range-24px" transform="translate(1821.585 814.292)">
      <path id="Caminho_1782" data-name="Caminho 1782" d="M7.416,8.624H5.944V10.1H7.416Zm2.944,0H8.888V10.1h1.472Zm2.944,0H11.831V10.1H13.3Zm1.472-5.152h-.736V2H12.567V3.472H6.68V2H5.208V3.472H4.472A1.465,1.465,0,0,0,3.007,4.944L3,15.247a1.471,1.471,0,0,0,1.472,1.472h10.3a1.476,1.476,0,0,0,1.472-1.472V4.944A1.476,1.476,0,0,0,14.775,3.472Zm0,11.775H4.472v-8.1h10.3Z" transform="translate(-0.792 -0.528)" fill="#fff"/>
      <path id="Caminho_1783" data-name="Caminho 1783" d="M0,0H17.663V17.663H0Z" fill="none"/>
    </g>
  </g>
</svg>
