<svg xmlns="http://www.w3.org/2000/svg" width="32.15" height="24.256" viewBox="0 0 32.15 24.256">
  <g id="_67994" data-name="67994" transform="translate(0 -0.001)">
    <g id="Grupo_5816" data-name="Grupo 5816">
      <g id="Grupo_3159" data-name="Grupo 3159" transform="translate(4.221 4.488)">
        <path id="Caminho_1720" data-name="Caminho 1720" d="M27.769,11.823a.718.718,0,0,0-.554-.264H24.5c-.671-1.769-1.545-3.5-2.538-4.157-3.436-2.26-12.55-2.26-15.986,0-.994.655-1.864,2.391-2.539,4.157H.715a.716.716,0,0,0-.7.86l.4,1.951a.715.715,0,0,0,.7.57h.805A4.829,4.829,0,0,0,.764,18.1a4.727,4.727,0,0,0,1.494,3.55c.011.009.021.016.031.025V24.4a1.074,1.074,0,0,0,1.073,1.073H5.869A1.074,1.074,0,0,0,6.942,24.4V23.3H20.987v1.1a1.074,1.074,0,0,0,1.073,1.073h2.507A1.074,1.074,0,0,0,25.64,24.4V21.725a4.906,4.906,0,0,0,.313-6.786h.859a.712.712,0,0,0,.7-.571l.4-1.95A.721.721,0,0,0,27.769,11.823ZM7.15,9.194c2.739-1.8,10.891-1.8,13.628,0,.532.349,1.216,1.76,1.844,3.488H5.308C5.933,10.955,6.618,9.544,7.15,9.194ZM3.942,18.365a2.11,2.11,0,1,1,2.11,2.11A2.11,2.11,0,0,1,3.942,18.365ZM21.9,20.476a2.11,2.11,0,1,1,2.11-2.11A2.111,2.111,0,0,1,21.9,20.476Z" transform="translate(0 -5.707)" fill="#fff"/>
      </g>
      <g id="Grupo_5815" data-name="Grupo 5815">
        <g id="Grupo_5815-2" data-name="Grupo 5815">
          <g id="Elipse_377" data-name="Elipse 377" transform="translate(3)" fill="#fff" stroke="#fff" stroke-width="1">
            <circle cx="5.5" cy="5.5" r="5.5" stroke="none"/>
            <circle cx="5.5" cy="5.5" r="5" fill="none"/>
          </g>
          <g id="Caminho_2249" data-name="Caminho 2249" transform="translate(0 8)" fill="#fff">
            <path d="M 16.48241806030273 7.500004291534424 L 0.5175821185112 7.500004291534424 C 0.7931011915206909 3.596846342086792 4.268103122711182 0.5000041723251343 8.5 0.5000041723251343 C 12.73189735412598 0.5000041723251343 16.20689964294434 3.596846342086792 16.48241806030273 7.500004291534424 Z" stroke="none"/>
            <path d="M 8.5 1.000003814697266 C 4.728215217590332 1.000003814697266 1.597776412963867 3.612198829650879 1.076300621032715 7.000004291534424 L 15.92369937896729 7.000004291534424 C 15.40222358703613 3.612198829650879 12.27178573608398 1.000003814697266 8.5 1.000003814697266 M 8.5 3.814697265625e-06 C 13.19441986083984 3.814697265625e-06 17 3.581724166870117 17 8.000003814697266 L 0 8.000003814697266 L 0 8.543951034545898 C 0 8.543951034545898 0 8.408014297485352 0 8.000003814697266 C 0 3.581724166870117 3.805580139160156 3.814697265625e-06 8.5 3.814697265625e-06 Z M 17 8.000003814697266 C 17 8.167887687683105 17 8.223861694335938 17 8.223861694335938 L 17 8.000003814697266 Z" stroke="none" fill="#047"/>
          </g>
          <g id="Caminho_2250" data-name="Caminho 2250" transform="translate(4 1)" fill="#fff">
            <path d="M 4.5 8.5 C 2.294389963150024 8.5 0.5 6.705609798431396 0.5 4.5 C 0.5 2.294389963150024 2.294389963150024 0.5 4.5 0.5 C 6.705609798431396 0.5 8.5 2.294389963150024 8.5 4.5 C 8.5 6.705609798431396 6.705609798431396 8.5 4.5 8.5 Z" stroke="none"/>
            <path d="M 4.5 1 C 2.570089817047119 1 1 2.570089817047119 1 4.5 C 1 6.429909706115723 2.570089817047119 8 4.5 8 C 6.429909706115723 8 8 6.429909706115723 8 4.5 C 8 2.570089817047119 6.429909706115723 1 4.5 1 M 4.5 0 C 6.98528003692627 0 9 2.01471996307373 9 4.5 C 9 6.98528003692627 6.98528003692627 9 4.5 9 C 2.01471996307373 9 0 6.98528003692627 0 4.5 C 0 2.01471996307373 2.01471996307373 0 4.5 0 Z" stroke="none" fill="#047"/>
          </g>
        </g>
        <circle id="Elipse_378" data-name="Elipse 378" cx="1" cy="1" r="1" transform="translate(9 6)" fill="#047"/>
        <path id="Caminho_2251" data-name="Caminho 2251" d="M.428-1.619A1.647,1.647,0,0,0-.68-.445,1.749,1.749,0,0,0-.244,1.365c.481.611.555.292,1.723.434a13.53,13.53,0,0,0,4.027-.24" transform="translate(4.5 5.5)" fill="none" stroke="#047" stroke-width="1"/>
      </g>
    </g>
  </g>
</svg>
