<svg xmlns="http://www.w3.org/2000/svg" width="15.492" height="15.492" viewBox="0 0 15.492 15.492"><defs><style>.a{fill:#707070;}.b{fill:none;}</style></defs><g transform="translate(0.001)"><circle class="a" cx="2.066" cy="2.066" r="2.066" transform="translate(5.68 5.68)"/><path class="a" d="M6.519,2,5.337,3.291H3.291A1.3,1.3,0,0,0,2,4.582v7.746a1.3,1.3,0,0,0,1.291,1.291H13.619a1.3,1.3,0,0,0,1.291-1.291V4.582a1.3,1.3,0,0,0-1.291-1.291H11.573L10.392,2Zm1.937,9.683a3.228,3.228,0,1,1,3.228-3.228A3.229,3.229,0,0,1,8.455,11.683Z" transform="translate(-0.709 -0.709)"/><path class="b" d="M0,0H15.492V15.492H0Z"/></g></svg>
