<svg xmlns="http://www.w3.org/2000/svg" width="34.74" height="24.587" viewBox="0 0 34.74 24.587"><defs><style>.a{fill:#464343;}</style></defs><g transform="translate(0 0)"><g transform="translate(0)"><path class="a" d="M34.54,13.315a.894.894,0,0,0-.689-.328H30.47c-.834-2.2-1.921-4.357-3.157-5.171C23.039,5,11.7,5,7.428,7.816c-1.236.815-2.319,2.974-3.158,5.171H.889a.89.89,0,0,0-.871,1.07l.5,2.427a.889.889,0,0,0,.871.709h1A6.006,6.006,0,0,0,.95,21.118a5.88,5.88,0,0,0,1.858,4.415c.013.012.027.02.039.031v3.4a1.335,1.335,0,0,0,1.334,1.334H7.3a1.335,1.335,0,0,0,1.334-1.334V27.595H26.1v1.364a1.335,1.335,0,0,0,1.334,1.334h3.119a1.336,1.336,0,0,0,1.334-1.334V25.631a6.1,6.1,0,0,0,.39-8.44H33.35a.886.886,0,0,0,.871-.71l.5-2.426A.9.9,0,0,0,34.54,13.315ZM8.893,10.044C12.3,7.8,22.439,7.8,25.844,10.044c.662.434,1.513,2.189,2.293,4.338H6.6C7.38,12.234,8.231,10.48,8.893,10.044ZM4.9,21.452a2.625,2.625,0,1,1,2.625,2.625A2.624,2.624,0,0,1,4.9,21.452Zm22.343,2.625a2.624,2.624,0,1,1,2.625-2.625A2.625,2.625,0,0,1,27.246,24.077Z" transform="translate(0 -5.707)"/></g></g></svg>
