<svg xmlns="http://www.w3.org/2000/svg" width="20" height="14.155" viewBox="0 0 20 14.155">
  <g id="carro-branco" transform="translate(-13.38 37.581)">
    <path id="Caminho_1720" data-name="Caminho 1720" d="M19.886,10.087a.514.514,0,0,0-.4-.189h-1.95a6.634,6.634,0,0,0-1.818-2.977C13.261,5.3,6.734,5.3,4.273,6.921A6.67,6.67,0,0,0,2.455,9.9H.512a.513.513,0,0,0-.5.616l.289,1.4a.512.512,0,0,0,.5.408h.578a3.458,3.458,0,0,0-.83,2.26,3.385,3.385,0,0,0,1.07,2.542l.022.018v1.955a.769.769,0,0,0,.767.768H4.2a.769.769,0,0,0,.768-.768v-.786H15.029v.786a.769.769,0,0,0,.768.768h1.8a.77.77,0,0,0,.768-.768V17.177a3.514,3.514,0,0,0,.225-4.86H19.2a.511.511,0,0,0,.5-.409l.289-1.4a.516.516,0,0,0-.1-.425ZM5.12,8.2c1.961-1.291,7.8-1.291,9.759,0a6.327,6.327,0,0,1,1.32,2.5H3.8A6.338,6.338,0,0,1,5.12,8.2Zm-2.3,6.571a1.511,1.511,0,1,1,1.51,1.508,1.511,1.511,0,0,1-1.51-1.508Zm12.863,1.511A1.511,1.511,0,1,1,17.2,14.775a1.511,1.511,0,0,1-1.511,1.511Z" transform="translate(13.38 -43.288)" fill="#fff"/>
  </g>
</svg>
