<svg xmlns="http://www.w3.org/2000/svg" width="23.324" height="26.166" viewBox="0 0 23.324 26.166">
  <g id="Grupo_5485" data-name="Grupo 5485" transform="translate(0 0)">
    <g id="Grupo_4801" data-name="Grupo 4801">
      <g id="Grupo_4798" data-name="Grupo 4798" transform="translate(0)">
        <g id="Grupo_4797" data-name="Grupo 4797">
          <path id="Caminho_2024" data-name="Caminho 2024" d="M11.662,0A11.662,11.662,0,0,1,23.324,11.662c-.287,7.54-2.787,10.352-5.879,14.5,0,0,1.2-5.118.378-4.6A11.663,11.663,0,1,1,11.662,0Z" fill="#f9b700"/>
        </g>
      </g>
      <g id="Grupo_4800" data-name="Grupo 4800" transform="translate(2.875 4.214)">
        <g id="_67994" data-name="67994" transform="translate(2.595 3.702)">
          <g id="Grupo_3159" data-name="Grupo 3159" transform="translate(0 0)">
            <path id="Caminho_1720" data-name="Caminho 1720" d="M15.268,8.991H13.743a5.2,5.2,0,0,0-1.424-2.332c-1.928-1.268-7.041-1.268-8.969,0A5.228,5.228,0,0,0,1.926,8.991H.4a.4.4,0,0,0-.393.483l.226,1.094a.4.4,0,0,0,.393.32h.452a2.709,2.709,0,0,0-.65,1.771,2.652,2.652,0,0,0,.837,1.991l.018.014V16.2a.6.6,0,0,0,.6.6H3.292a.6.6,0,0,0,.6-.6v-.616h7.88v.615a.6.6,0,0,0,.6.6h1.407a.6.6,0,0,0,.6-.6v-1.5a2.752,2.752,0,0,0,.176-3.807h.482a.4.4,0,0,0,.393-.32l.226-1.094C15.684,9.355,15.387,8.991,15.268,8.991ZM4.011,7.664c1.537-1.012,6.11-1.012,7.646,0A4.954,4.954,0,0,1,12.691,9.62H2.978A4.953,4.953,0,0,1,4.011,7.664Zm-1.8,5.145a1.184,1.184,0,1,1,1.184,1.184,1.184,1.184,0,0,1-1.184-1.184ZM12.29,13.993a1.184,1.184,0,1,1,1.184-1.184A1.184,1.184,0,0,1,12.29,13.993Z" transform="translate(0.001 -5.707)" fill="#fff"/>
          </g>
        </g>
        <g id="baseline-cloud_queue-24px">
          <path id="Caminho_2019" data-name="Caminho 2019" d="M7.978,6.487a3.087,3.087,0,0,0-5.769-.824,2.471,2.471,0,0,0,.268,4.928H7.834a2.054,2.054,0,0,0,.144-4.1Z" transform="translate(-0.006 -3.998)" fill="#fff" stroke="#f9b700" stroke-width="1"/>
        </g>
      </g>
    </g>
    <path id="Caminho_2025" data-name="Caminho 2025" d="M8.956,0a1.8,1.8,0,0,1,.462.063C13.6,1.107,11.137,20.515,9.8,20.439a1.71,1.71,0,0,1-.846.219C4.01,20.658,0,16.033,0,10.329S4.01,0,8.956,0Z" transform="matrix(1, 0.017, -0.017, 1, 1.238, 1.175)" fill="#fff" opacity="0.18"/>
  </g>
</svg>
