<svg xmlns="http://www.w3.org/2000/svg" xmlns:xlink="http://www.w3.org/1999/xlink" version="1.1" x="0px" y="0px" viewBox="0 19.167 79.333 122.7075" enable-background="new 0 19.167 79.333 98.166" xml:space="preserve"><circle cx="24.182" cy="39.378" r="8.297"/><path d="M9.551,71.594c0.828,8.006,1.523,14.711,4.573,19.589l4.224-6.043c-1.286-3.552-1.785-8.365-2.389-14.209  c-0.283-2.734-0.575-5.562-0.982-8.645c-0.234-1.764-1.853-3.006-3.616-2.771c-1.764,0.232-3.004,1.852-2.771,3.615  C8.985,66.122,9.273,68.904,9.551,71.594z"/><path d="M45.833,95.147c-0.2-1.768-1.795-3.04-3.563-2.838c-10.675,1.208-17.26,0.472-20.724-2.314  c-0.291-0.234-0.562-0.489-0.818-0.761l-3.736,5.346c0.168,0.146,0.339,0.293,0.515,0.435c3.598,2.895,8.723,4.289,16.103,4.289  c2.792,0,5.908-0.199,9.386-0.593C44.762,98.51,46.032,96.915,45.833,95.147z"/><path d="M61.151,93.609c-1.031-3.748-1.847-6.708-3.049-9.048c-2.438-4.747-6.044-5.745-8.637-5.745  c-4.73,0-9.943-0.103-13.863-0.238l-1.335-8.715L22.868,86.17c0.802,0.863,1.798,1.533,2.908,1.943  c0.645,0.354,1.438,0.628,2.418,0.766c0.479,0.066,1.106,0.128,1.916,0.185c1.338,0.095,3.18,0.182,5.475,0.26  c3.986,0.133,8.891,0.219,13.021,0.229c0.656,1.33,1.497,4.379,2.191,6.904c0.957,3.479,2.149,7.809,3.972,12.801  c0.795,2.18,2.853,3.531,5.044,3.531c0.61,0,1.232-0.105,1.84-0.326c2.786-1.018,4.22-4.099,3.203-6.885  C63.184,100.996,62.104,97.071,61.151,93.609z"/><path d="M16.657,52.602l-7.844-4.015l-1.957,3.824l8.748,4.478C15.514,55.342,15.904,53.86,16.657,52.602z"/><path d="M78.998,80.497L63.675,56.364l2.503-9.302c0.307-1.146-0.371-2.324-1.517-2.632c-1.146-0.308-2.324,0.371-2.632,1.516  l-4.088,15.2c-0.093-0.398-0.243-0.789-0.458-1.161c-1.181-2.058-3.806-2.767-5.862-1.586c-5.364,3.08-10.115,0.375-17.423-4.292  c-1.412-0.902-2.854-1.821-4.318-2.67c-1.63-1.565-3.943-2.382-6.35-2.013c-2.303,0.353-4.201,1.716-5.311,3.571  c-0.754,1.257-1.145,2.739-1.055,4.286c0.014,0.236,0.038,0.474,0.075,0.711l3.611,23.57L33.25,63.822l0.103,0.072l-0.031-0.21  c2.49,1.486,5.077,2.831,7.846,3.686c1.981,0.611,3.924,0.916,5.823,0.916c3.099,0,6.081-0.813,8.907-2.437  c0.378-0.217,0.709-0.48,0.99-0.781l-1.105,4.111c-0.309,1.146,0.371,2.325,1.517,2.632c0.187,0.051,0.374,0.074,0.559,0.074  c0.947,0,1.815-0.631,2.073-1.591l2.232-8.301l13.209,20.806c0.409,0.644,1.104,0.996,1.815,0.996c0.394,0,0.791-0.108,1.149-0.335  C79.337,82.825,79.633,81.498,78.998,80.497z"/></svg>
