<svg xmlns="http://www.w3.org/2000/svg" width="24" height="21" viewBox="0 0 24 21">
  <g id="Grupo_5900" data-name="Grupo 5900" transform="translate(-45 -441)">
    <g id="Grupo_5833" data-name="Grupo 5833" transform="translate(47.799 444.559)">
      <path id="Caminho_1720" data-name="Caminho 1720" d="M19.24,9.945a.5.5,0,0,0-.384-.183H16.973a6.42,6.42,0,0,0-1.758-2.88c-2.381-1.566-8.7-1.566-11.076,0a6.452,6.452,0,0,0-1.759,2.88H.5a.5.5,0,0,0-.485.6L.289,11.71a.5.5,0,0,0,.485.395h.558a3.346,3.346,0,0,0-.8,2.187,3.275,3.275,0,0,0,1.035,2.46l.022.017v1.891a.744.744,0,0,0,.743.743H4.066a.744.744,0,0,0,.743-.743V17.9h9.732v.76a.744.744,0,0,0,.743.743h1.737a.744.744,0,0,0,.743-.743V16.805a3.4,3.4,0,0,0,.217-4.7h.6a.494.494,0,0,0,.485-.4l.279-1.351A.5.5,0,0,0,19.24,9.945ZM4.954,8.123c1.9-1.249,7.546-1.249,9.442,0a6.127,6.127,0,0,1,1.277,2.416h-12A6.128,6.128,0,0,1,4.954,8.123ZM2.731,14.478A1.462,1.462,0,1,1,4.193,15.94,1.462,1.462,0,0,1,2.731,14.478ZM15.177,15.94a1.462,1.462,0,1,1,1.462-1.462A1.462,1.462,0,0,1,15.177,15.94Z" transform="translate(0 -5.707)" fill="#005b9e"/>
    </g>
    <rect id="Retângulo_2630" data-name="Retângulo 2630" width="24" height="21" transform="translate(45 441)" fill="none"/>
  </g>
</svg>
