<svg xmlns="http://www.w3.org/2000/svg" width="12.211" height="15.695" viewBox="0 0 12.211 15.695">
  <g id="_67994" data-name="67994" transform="translate(-2.982 3.368)">
    <g id="Grupo_3159" data-name="Grupo 3159" transform="translate(-1.198 -3.367)">
      <g id="Grupo_5863" data-name="Grupo 5863" transform="translate(0 0)">
        <g id="Grupo_4832" data-name="Grupo 4832" transform="translate(4.182 0)">
          <path id="Subtração_3" data-name="Subtração 3" d="M10.211,15.7H2a2,2,0,0,1-2-2V2A2,2,0,0,1,2,0h8.211a2,2,0,0,1,2,2V13.7A2,2,0,0,1,10.211,15.7Zm-3.72-4.872h0L8.164,13.2l2.614-3.627s-.11.083-.271.2l0,0-.09.066c-.551.406-2.22,1.635-2.249,1.636,0-.027-1.052-.425-1.672-.656Zm-2.734.511a.875.875,0,1,0,0,1.744.875.875,0,1,0,0-1.744ZM6.492,6.464h0L8.164,8.841l2.613-3.628s-.045.035-.121.091l-.252.185C8.941,6.568,8.188,7.117,8.165,7.121c0-.024-.9-.369-1.673-.657Zm-2.734.512a.875.875,0,1,0,0,1.744.875.875,0,1,0,0-1.744ZM6.492,2.1,8.164,4.481,10.778.853s-.11.083-.271.2l0,0-.09.066c-.551.406-2.22,1.635-2.249,1.636C8.161,2.733,7.112,2.335,6.492,2.1Zm-2.734.512a.909.909,0,0,0-.94.872.908.908,0,0,0,.94.871.908.908,0,0,0,.94-.871A.909.909,0,0,0,3.758,2.616Z" transform="translate(0 0)" fill="#fff"/>
        </g>
      </g>
    </g>
  </g>
</svg>
