<svg xmlns="http://www.w3.org/2000/svg" width="19.795" height="26.265" viewBox="0 0 19.795 26.265">
  <g id="Grupo_6079" data-name="Grupo 6079" transform="translate(-959.106 -81.711)">
    <g id="Grupo_6080" data-name="Grupo 6080" transform="translate(959.106 81.711)">
      <g id="Grupo_6075" data-name="Grupo 6075" transform="translate(0)">
        <g id="Grupo_6077" data-name="Grupo 6077">
          <g id="Grupo_6076" data-name="Grupo 6076" transform="translate(0)">
            <g id="_1694789" data-name="1694789" transform="translate(0)">
              <g id="Grupo_6072" data-name="Grupo 6072" transform="translate(0.385 0.385)">
                <path id="Caminho_2332" data-name="Caminho 2332" d="M0,0H7.189V2.567H0Z" transform="translate(10.886 23.312)" fill="#fff"/>
                <path id="Caminho_2331" data-name="Caminho 2331" d="M0,0H14.891V20.539H0Z" fill="#005b9e"/>
                <path id="Caminho_2316" data-name="Caminho 2316" d="M262.778,198.7a2.088,2.088,0,0,0-2.141,2.214v2.576a5.9,5.9,0,0,0-1.9,2.911,4.856,4.856,0,0,0-.1.995,6.855,6.855,0,0,0,.151,1.446l4.544-.025V198.1C263.149,198.067,262.966,198.7,262.778,198.7Z" transform="translate(-248.435 -188.274)" fill="#fff"/>
                <path id="Caminho_2317" data-name="Caminho 2317" d="M298.408,431.5l.21.462v1.078h5.135V431.5Z" transform="translate(-286.705 -409.727)" fill="#e5bd76"/>
                <path id="Caminho_2318" data-name="Caminho 2318" d="M286.139,205.364v-1.078l-.492-1.083a4.382,4.382,0,0,1,1.6-5.49h0v-3.028a1.318,1.318,0,0,1,1.318-1.318h0a1.313,1.313,0,0,1,.548.119V191.5l1.849.168,1.8,4.9.46,1.252L291.274,203v2.362Z" transform="translate(-274.226 -182.052)" fill="#005b9e"/>
                <path id="Caminho_2319" data-name="Caminho 2319" d="M362.039,192.736v-1.1l-1.54-.14v1.986a1.318,1.318,0,0,1,.77,1.2v4.734h0a1.54,1.54,0,0,0,1.54-1.54v-3.193A2.846,2.846,0,0,0,362.039,192.736Z" transform="translate(-345.608 -182.052)" fill="#fff"/>
              </g>
              <path id="Caminho_2320" data-name="Caminho 2320" d="M166.027,21.405,168,16.151l-1.043-2.838-.723.266.944,2.569-1.925,5.118v2.047h-4.365v-.777l-.527-1.159a3.973,3.973,0,0,1,1.463-5.007l.176-.114V13.018a.933.933,0,0,1,1.866,0v4.734h.77V13.018a1.7,1.7,0,0,0-.77-1.424V10.255l1.186.108.916,2.493.723-.266-1.084-2.95-1.741-.158V0h-2.815V.77H163.1V11.323c-.054-.005-.108-.008-.163-.008a1.705,1.705,0,0,0-1.7,1.7v2.825a4.763,4.763,0,0,0-1.926,4.7h-6.487v.77h6.688q.069.2.155.386l.458,1.007v.61h-1.027v2.953h.77V24.082h6.419v2.182h.77V23.312h-1.027Z" transform="translate(-148.209)" fill="#fff"/>
              <path id="Caminho_2321" data-name="Caminho 2321" d="M63.769,174.822H63v12.333h3.842v-.77H63.769Z" transform="translate(-62.999 -165.845)" fill="#fff"/>
              <path id="Caminho_2322" data-name="Caminho 2322" d="M63.769.77H75.075V0H63V8.207h.77Z" transform="translate(-62.999)" fill="#fff"/>
              <path id="Caminho_2333" data-name="Caminho 2333" d="M0,0H8.729V.77H0Z" transform="translate(3.466 6.573)" fill="#fff"/>
              <rect id="Retângulo_2755" data-name="Retângulo 2755" width="0.77" height="0.77" transform="translate(4.416 25.495)" fill="#fff"/>
              <path id="Caminho_2334" data-name="Caminho 2334" d="M0,0H.77V.77H0Z" transform="translate(4.416 22.414)" fill="#fff"/>
              <rect id="Retângulo_2757" data-name="Retângulo 2757" width="0.77" height="0.77" transform="translate(4.416 23.954)" fill="#fff"/>
              <rect id="Retângulo_2758" data-name="Retângulo 2758" width="0.77" height="0.77" transform="translate(6.47 23.954)" fill="#fff"/>
              <rect id="Retângulo_2759" data-name="Retângulo 2759" width="0.77" height="0.77" transform="translate(6.47 22.414)" fill="#fff"/>
              <g id="Grupo_6074" data-name="Grupo 6074" transform="translate(2.388 9.397)">
                <rect id="Retângulo_2760" data-name="Retângulo 2760" width="0.77" height="0.77" transform="translate(10.064 15.507)" fill="#005b9e"/>
                <path id="Caminho_2324" data-name="Caminho 2324" d="M147.766,183.77h-3.594V183h3.594Zm-4.365,0h-1.54V183h1.54Zm-2.311,0H139.5V183h1.592Z" transform="translate(-137.959 -183)" fill="#fff"/>
                <path id="Caminho_2325" data-name="Caminho 2325" d="M119.307,223.77h-2.362V223h2.362Zm-3.132,0h-.77V223h.77Zm-1.54,0h-.77V223h.77Zm-1.54,0H109.5V223h3.594Z" transform="translate(-109.499 -220.946)" fill="#fff"/>
                <path id="Caminho_2326" data-name="Caminho 2326" d="M119.307,263.77h-2.054V263h2.054Zm-2.824,0h-.77V263h.77Zm-1.54,0h-3.081V263h3.081Zm-3.851,0H109.5V263h1.592Z" transform="translate(-109.499 -258.892)" fill="#fff"/>
                <path id="Caminho_2327" data-name="Caminho 2327" d="M118.228,303.77h-2.054V303h2.054Zm-2.824,0H113.35V303H115.4Zm-2.824,0H109.5V303h3.081Z" transform="translate(-109.499 -296.838)" fill="#fff"/>
                <path id="Caminho_2328" data-name="Caminho 2328" d="M117.2,343.77H114.12V343H117.2Zm-3.851,0h-.77V343h.77Zm-1.54,0H109.5V343h2.311Z" transform="translate(-109.499 -334.784)" fill="#fff"/>
              </g>
            </g>
          </g>
        </g>
      </g>
      <text id="CRLV" transform="translate(2.795 1.543)" fill="#fff" font-size="4" font-family="Poppins-SemiBold, Poppins" font-weight="600"><tspan x="0" y="4">CRLV</tspan></text>
    </g>
  </g>
</svg>
