<svg xmlns="http://www.w3.org/2000/svg" width="27.894" height="37.011" viewBox="0 0 27.894 37.011">
  <g id="Grupo_6078" data-name="Grupo 6078" transform="translate(-960.106 -94.711)">
    <g id="Grupo_6075" data-name="Grupo 6075" transform="translate(352.457 -798.203)">
      <g id="Grupo_6077" data-name="Grupo 6077" transform="translate(607.649 892.914)">
        <g id="Grupo_6076" data-name="Grupo 6076" transform="translate(0)">
          <g id="_1694789" data-name="1694789" transform="translate(0)">
            <g id="Grupo_6072" data-name="Grupo 6072" transform="translate(0.543 0.543)">
              <path id="Caminho_2332" data-name="Caminho 2332" d="M0,0H10.13V3.618H0Z" transform="translate(15.34 32.85)" fill="#fff"/>
              <path id="Caminho_2331" data-name="Caminho 2331" d="M0,0H20.984V28.943H0Z" fill="#005b9e"/>
              <path id="Caminho_2316" data-name="Caminho 2316" d="M264.475,198.941a2.943,2.943,0,0,0-3.017,3.119v3.631a8.307,8.307,0,0,0-2.68,4.1,6.842,6.842,0,0,0-.147,1.4,9.66,9.66,0,0,0,.212,2.037l6.4-.036V198.1C265,198.054,264.739,198.941,264.475,198.941Z" transform="translate(-244.263 -184.254)" fill="#fff"/>
              <path id="Caminho_2317" data-name="Caminho 2317" d="M298.408,431.5l.3.651v1.52h7.236V431.5Z" transform="translate(-281.917 -400.819)" fill="#e5bd76"/>
              <path id="Caminho_2318" data-name="Caminho 2318" d="M286.5,211.037v-1.52l-.694-1.526a6.175,6.175,0,0,1,2.261-7.736h0v-4.267a1.857,1.857,0,0,1,1.857-1.857h0a1.85,1.85,0,0,1,.772.168v-2.8l2.6.237,2.535,6.9.648,1.765-2.75,7.308v3.328Z" transform="translate(-269.715 -178.186)" fill="#fff"/>
              <path id="Caminho_2319" data-name="Caminho 2319" d="M362.67,193.242V191.7l-2.171-.2v2.8a1.857,1.857,0,0,1,1.085,1.689v6.67h0a2.171,2.171,0,0,0,2.171-2.171v-4.5A4.011,4.011,0,0,0,362.67,193.242Z" transform="translate(-339.515 -178.186)" fill="#fff"/>
            </g>
            <g id="Grupo_6073" data-name="Grupo 6073" transform="translate(0)">
              <path id="Caminho_2320" data-name="Caminho 2320" d="M171.43,30.163l2.786-7.4-1.47-4-1.019.374,1.33,3.62-2.713,7.212V32.85h-6.15V31.756l-.742-1.633a5.6,5.6,0,0,1,2.062-7.056l.247-.16V18.344a1.315,1.315,0,0,1,2.629,0v6.67h1.085v-6.67a2.4,2.4,0,0,0-1.085-2.006V14.451l1.671.152,1.291,3.513,1.019-.374-1.528-4.158-2.453-.223V0h-3.967V1.085h2.881v14.87c-.076-.007-.152-.011-.229-.011a2.4,2.4,0,0,0-2.4,2.4v3.981a6.712,6.712,0,0,0-2.714,6.618h-9.141v1.085h9.424q.1.276.219.544l.645,1.419v.859h-1.447v4.161h1.085V33.936h9.045v3.075h1.085V32.85H171.43Z" transform="translate(-146.322)" fill="#005b9e"/>
              <path id="Caminho_2321" data-name="Caminho 2321" d="M64.084,174.822H63V192.2h5.414v-1.085H64.084Z" transform="translate(-62.999 -162.172)" fill="#005b9e"/>
              <path id="Caminho_2322" data-name="Caminho 2322" d="M64.084,1.085H80.016V0H63V11.564h1.085Z" transform="translate(-62.999)" fill="#005b9e"/>
              <path id="Caminho_2333" data-name="Caminho 2333" d="M0,0H12.3V1.085H0Z" transform="translate(4.884 9.262)" fill="#fff"/>
              <rect id="Retângulo_2755" data-name="Retângulo 2755" width="1.085" height="1.085" transform="translate(6.223 35.926)" fill="#005b9e"/>
              <path id="Caminho_2334" data-name="Caminho 2334" d="M0,0H1.085V1.085H0Z" transform="translate(6.223 31.584)" fill="#005b9e"/>
              <rect id="Retângulo_2757" data-name="Retângulo 2757" width="1.085" height="1.085" transform="translate(6.223 33.755)" fill="#005b9e"/>
              <rect id="Retângulo_2758" data-name="Retângulo 2758" width="1.085" height="1.085" transform="translate(9.117 33.755)" fill="#005b9e"/>
              <rect id="Retângulo_2759" data-name="Retângulo 2759" width="1.085" height="1.085" transform="translate(9.117 31.584)" fill="#005b9e"/>
            </g>
            <g id="Grupo_6074" data-name="Grupo 6074" transform="translate(3.365 13.241)">
              <rect id="Retângulo_2760" data-name="Retângulo 2760" width="1.085" height="1.085" transform="translate(14.182 21.852)" fill="#005b9e"/>
              <path id="Caminho_2324" data-name="Caminho 2324" d="M151.149,184.085h-5.065V183h5.065Zm-6.15,0h-2.171V183H145Zm-3.256,0H139.5V183h2.243Z" transform="translate(-137.328 -183)" fill="#fff"/>
              <path id="Caminho_2325" data-name="Caminho 2325" d="M123.319,224.085h-3.328V223h3.328Zm-4.414,0H117.82V223h1.085Zm-2.171,0h-1.085V223h1.085Zm-2.171,0H109.5V223h5.065Z" transform="translate(-109.499 -220.106)" fill="#fff"/>
              <path id="Caminho_2326" data-name="Caminho 2326" d="M123.319,264.085h-2.894V263h2.894Zm-3.98,0h-1.085V263h1.085Zm-2.171,0h-4.341V263h4.341Zm-5.427,0H109.5V263h2.243Z" transform="translate(-109.499 -257.211)" fill="#fff"/>
              <path id="Caminho_2327" data-name="Caminho 2327" d="M121.8,304.085h-2.894V303H121.8Zm-3.98,0h-2.894V303h2.894Zm-3.98,0H109.5V303h4.341Z" transform="translate(-109.499 -294.317)" fill="#fff"/>
              <path id="Caminho_2328" data-name="Caminho 2328" d="M120.353,344.085h-4.341V343h4.341Zm-5.427,0H113.84V343h1.085Zm-2.171,0H109.5V343h3.256Z" transform="translate(-109.499 -331.423)" fill="#fff"/>
            </g>
          </g>
        </g>
      </g>
    </g>
    <text id="CRLV" transform="translate(961 95)" fill="#fff" font-size="8" font-family="Poppins-SemiBold, Poppins" font-weight="600"><tspan x="0" y="8">CRLV</tspan></text>
  </g>
</svg>
