<svg xmlns="http://www.w3.org/2000/svg" width="12" height="12" viewBox="0 0 12 12">
  <g id="Grupo_5926" data-name="Grupo 5926" transform="translate(-3.5 -322)">
    <g id="Grupo_5924" data-name="Grupo 5924" transform="translate(0 16)">
      <g id="Grupo_5922" data-name="Grupo 5922" transform="translate(-10 37)">
        <g id="Grupo_5925" data-name="Grupo 5925">
          <rect id="Ret창ngulo_2645" data-name="Ret창ngulo 2645" width="1" height="12" transform="translate(15 269)" fill="#005b9e"/>
          <rect id="Ret창ngulo_2646" data-name="Ret창ngulo 2646" width="1" height="12" transform="translate(25.5 278.5) rotate(90)" fill="#005b9e"/>
        </g>
      </g>
    </g>
    <g id="_67994" data-name="67994" transform="translate(6.516 325.285)">
      <g id="Grupo_3159" data-name="Grupo 3159" transform="translate(0)">
        <path id="Caminho_1720" data-name="Caminho 1720" d="M7.469,7.352a.193.193,0,0,0-.149-.071H6.589a2.492,2.492,0,0,0-.683-1.118,5.3,5.3,0,0,0-4.3,0A2.5,2.5,0,0,0,.923,7.281H.192A.192.192,0,0,0,0,7.513l.108.525A.192.192,0,0,0,.3,8.191H.517a1.3,1.3,0,0,0-.312.849,1.271,1.271,0,0,0,.4.955L.616,10v.734a.289.289,0,0,0,.289.288h.674a.289.289,0,0,0,.289-.288v-.3H5.645v.3a.289.289,0,0,0,.289.288h.674a.289.289,0,0,0,.289-.288v-.72A1.319,1.319,0,0,0,6.98,8.19h.231A.192.192,0,0,0,7.4,8.037l.108-.524A.194.194,0,0,0,7.469,7.352ZM1.923,6.645a4.8,4.8,0,0,1,3.666,0,2.378,2.378,0,0,1,.5.938H1.427A2.378,2.378,0,0,1,1.923,6.645ZM1.06,9.112a.568.568,0,1,1,.568.568A.567.567,0,0,1,1.06,9.112Zm4.832.568a.567.567,0,1,1,.568-.568A.568.568,0,0,1,5.892,9.679Z" transform="translate(0 -5.707)" fill="#005b9e"/>
      </g>
    </g>
  </g>
</svg>
