<svg xmlns="http://www.w3.org/2000/svg" width="12.244" height="12" viewBox="0 0 12.244 12">
  <g id="Grupo_5909" data-name="Grupo 5909" transform="translate(-13.5 -249)">
    <g id="Grupo_5907" data-name="Grupo 5907">
      <rect id="Ret창ngulo_2634" data-name="Ret창ngulo 2634" width="1" height="12" transform="translate(15 249)" fill="#fff"/>
      <rect id="Ret창ngulo_2635" data-name="Ret창ngulo 2635" width="1" height="12" transform="translate(25.5 258.5) rotate(90)" fill="#fff"/>
    </g>
    <g id="_67994" data-name="67994" transform="translate(16.516 252.285)">
      <g id="Grupo_3159" data-name="Grupo 3159" transform="translate(0)">
        <path id="Caminho_1720" data-name="Caminho 1720" d="M7.469,7.352a.193.193,0,0,0-.149-.071H6.589a2.492,2.492,0,0,0-.683-1.118,5.3,5.3,0,0,0-4.3,0A2.5,2.5,0,0,0,.923,7.281H.192A.192.192,0,0,0,0,7.513l.108.525A.192.192,0,0,0,.3,8.191H.517a1.3,1.3,0,0,0-.312.849,1.271,1.271,0,0,0,.4.955L.616,10v.734a.289.289,0,0,0,.289.288h.674a.289.289,0,0,0,.289-.288v-.3H5.645v.3a.289.289,0,0,0,.289.288h.674a.289.289,0,0,0,.289-.288v-.72A1.319,1.319,0,0,0,6.98,8.19h.231A.192.192,0,0,0,7.4,8.037l.108-.524A.194.194,0,0,0,7.469,7.352ZM1.923,6.645a4.8,4.8,0,0,1,3.666,0,2.378,2.378,0,0,1,.5.938H1.427A2.378,2.378,0,0,1,1.923,6.645ZM1.06,9.112a.568.568,0,1,1,.568.568A.567.567,0,0,1,1.06,9.112Zm4.832.568a.567.567,0,1,1,.568-.568A.568.568,0,0,1,5.892,9.679Z" transform="translate(0 -5.707)" fill="#fff"/>
      </g>
    </g>
    <g id="_67994-2" data-name="67994" transform="translate(21.965 249.609)">
      <g id="Grupo_3159-2" data-name="Grupo 3159" transform="translate(0)">
        <path id="Caminho_1720-2" data-name="Caminho 1720" d="M3.758,6.535A.1.1,0,0,0,3.683,6.5H3.315a1.254,1.254,0,0,0-.343-.563,2.665,2.665,0,0,0-2.164,0A1.26,1.26,0,0,0,.464,6.5H.1A.1.1,0,0,0,0,6.616l.054.264a.1.1,0,0,0,.095.077H.26A.653.653,0,0,0,.1,7.384a.64.64,0,0,0,.2.48l0,0v.369a.145.145,0,0,0,.145.145H.794a.145.145,0,0,0,.145-.145V8.089h1.9v.148a.145.145,0,0,0,.145.145h.339a.145.145,0,0,0,.145-.145V7.875a.664.664,0,0,0,.042-.918h.116a.1.1,0,0,0,.095-.077l.055-.264A.1.1,0,0,0,3.758,6.535ZM.967,6.179a2.415,2.415,0,0,1,1.844,0,1.2,1.2,0,0,1,.249.472H.718A1.2,1.2,0,0,1,.967,6.179ZM.533,7.42a.286.286,0,1,1,.286.286A.286.286,0,0,1,.533,7.42Zm2.431.286A.286.286,0,1,1,3.25,7.42.286.286,0,0,1,2.964,7.706Z" transform="translate(0 -5.707)" fill="#fff"/>
      </g>
    </g>
  </g>
</svg>
