<svg xmlns="http://www.w3.org/2000/svg" width="12" height="12" viewBox="0 0 12 12">
  <g id="Grupo_5916" data-name="Grupo 5916" transform="translate(-13.5 -249)">
    <g id="Grupo_5907" data-name="Grupo 5907">
      <rect id="Ret창ngulo_2634" data-name="Ret창ngulo 2634" width="1" height="12" transform="translate(15 249)" fill="#005b9e"/>
      <rect id="Ret창ngulo_2635" data-name="Ret창ngulo 2635" width="1" height="12" transform="translate(25.5 258.5) rotate(90)" fill="#005b9e"/>
    </g>
    <path id="Caminho_2277" data-name="Caminho 2277" d="M7.614,6.27a.585.585,0,0,0-.29-.433L5.445,4.755a.59.59,0,0,0-.71.094l-.37.37A.271.271,0,0,1,4,5.239a10.7,10.7,0,0,1-.854-.768,10.7,10.7,0,0,1-.768-.854.271.271,0,0,1,.02-.362l.37-.37a.59.59,0,0,0,.094-.71L1.782.295A.589.589,0,0,0,.855.172L.3.73c-.389.389-.4,1.1-.018,2.005A8.856,8.856,0,0,0,2.19,5.429a8.856,8.856,0,0,0,2.694,1.91,3.142,3.142,0,0,0,1.18.279,1.125,1.125,0,0,0,.826-.3l.558-.558A.585.585,0,0,0,7.614,6.27Zm-2.7-1.015.664.379,1.8,1.026c.093.054-.014-.464,0-.357a.339.339,0,0,1-.064.248l-1.528-1.3H5.059C5.168,5.146,4.775,5.178,4.909,5.255ZM1.349.49C1.455.5,1.3.4,1.349.49h0C2.369,2.971,2.509,2.426,2.4,2.535h0l.29.349L1.384.584l.263.437c.015,0-.313-.533-.3-.531ZM6.714,7.147c-.309.309-.942.3-1.736-.036A8.607,8.607,0,0,1,2.364,5.255,8.607,8.607,0,0,1,.507,2.64C.176,1.846.163,1.214.472.9L.886.49,2.322,2.984l-.1.1a.518.518,0,0,0-.038.692,10.95,10.95,0,0,0,.786.874,10.956,10.956,0,0,0,.874.786.518.518,0,0,0,.692-.038l.088-.088,2.5,1.428-.414.414Z" transform="translate(17.221 249.35)" fill="#005b9e"/>
  </g>
</svg>
