<svg xmlns="http://www.w3.org/2000/svg" width="33.713" height="33.714" viewBox="0 0 33.713 33.714">
  <g id="Grupo_4146" data-name="Grupo 4146" transform="translate(-248.87 -792.413)">
    <g id="Grupo_4147" data-name="Grupo 4147" transform="translate(248.87 792.413)">
      <g id="_64673" data-name="64673" transform="translate(0 0)">
        <g id="Grupo_4145" data-name="Grupo 4145">
          <path id="Caminho_1892" data-name="Caminho 1892" d="M29.714,23.347A13.68,13.68,0,0,0,10.367,4,13.414,13.414,0,0,0,8.31,20.51a.575.575,0,0,1-.079.686L1.251,28.175c-1.389,1.389-1.72,3.332-.488,4.564l.212.212c1.232,1.232,3.174.9,4.564-.488L12.5,25.5a.584.584,0,0,1,.7-.094A13.414,13.414,0,0,0,29.714,23.347ZM12.893,20.821a10.108,10.108,0,1,1,14.295,0A10.119,10.119,0,0,1,12.893,20.821Z" transform="translate(0 0)" fill="#005b9e"/>
        </g>
      </g>
      <g id="Grupo_3159" data-name="Grupo 3159" transform="translate(14.132 8.326)">
        <path id="Caminho_1720" data-name="Caminho 1720" d="M12.683,8.5a.328.328,0,0,0-.253-.121H11.188a4.232,4.232,0,0,0-1.159-1.9c-1.569-1.032-5.732-1.032-7.3,0a4.253,4.253,0,0,0-1.16,1.9H.327a.327.327,0,0,0-.32.393l.184.891a.327.327,0,0,0,.32.26H.878a2.206,2.206,0,0,0-.529,1.441,2.159,2.159,0,0,0,.682,1.621L1.045,13v1.247a.49.49,0,0,0,.49.49H2.68a.49.49,0,0,0,.49-.49v-.5H9.586v.5a.49.49,0,0,0,.49.49h1.145a.491.491,0,0,0,.49-.49V13.023a2.241,2.241,0,0,0,.143-3.1h.392a.325.325,0,0,0,.32-.261l.184-.891A.329.329,0,0,0,12.683,8.5ZM3.265,7.3c1.251-.823,4.974-.823,6.224,0a4.039,4.039,0,0,1,.842,1.593H2.424A4.039,4.039,0,0,1,3.265,7.3ZM1.8,11.489a.964.964,0,1,1,.964.964A.964.964,0,0,1,1.8,11.489Zm8.2.964a.964.964,0,1,1,.964-.964A.964.964,0,0,1,10,12.453Z" transform="translate(0 -5.707)" fill="#005b9e"/>
      </g>
    </g>
  </g>
</svg>
