<svg xmlns="http://www.w3.org/2000/svg" width="29.029" height="29.029" viewBox="0 0 29.029 29.029">
  <path id="Caminho_1725" data-name="Caminho 1725" d="M14.516,0A14.515,14.515,0,1,0,29.03,14.515,14.515,14.515,0,0,0,14.516,0Zm6.895,10.445-1.379,1.379-2.8-2.806-1.065,1.065,2.807,2.806L12.09,19.772l-2.8-2.806L8.221,18.031l2.806,2.806-.685.685-.013-.013a.543.543,0,0,1-.346.249l-2.617.584a.545.545,0,0,1-.649-.65L7.3,19.077a.545.545,0,0,1,.249-.346l-.017-.015L18.609,7.638a.422.422,0,0,1,.588,0L21.416,9.85a.422.422,0,0,1,0,.6Z" transform="translate(-0.001 0)" fill="#005b9e"/>
</svg>
