<svg xmlns="http://www.w3.org/2000/svg" width="21.018" height="15.544" viewBox="0 0 21.018 15.544">
  <g id="Grupo_5890" data-name="Grupo 5890" transform="translate(-59.305 -313.483)">
    <path id="Caminho_2268" data-name="Caminho 2268" d="M7.139,0c.426.428-.934,2.237.727,4.8s5.482,1.722,4.853,1.917S0,6.719,0,6.719H0C0,3.008,3.569,0,7.139,0Z" transform="translate(59.305 321.851)" fill="#0f0e0e"/>
    <path id="Caminho_2269" data-name="Caminho 2269" d="M3.66,0A3.66,3.66,0,1,1,0,3.66,3.66,3.66,0,0,1,3.66,0Z" transform="translate(62.984 313.483)" fill="#0f0e0e"/>
    <g id="_24px_2_" data-name="24px (2)" transform="translate(68 317.664)">
      <path id="Caminho_2198" data-name="Caminho 2198" d="M6.988,8.056a3.084,3.084,0,1,0,0,2.056H9.224v2.056H11.28V10.112h1.028V8.056Zm-2.9,2.056A1.028,1.028,0,1,1,5.112,9.084a1.028,1.028,0,0,1-1.024,1.028Z" transform="translate(-0.486 -2.916)" fill="none" stroke="#0f0e0e" stroke-width="1"/>
    </g>
  </g>
</svg>
