<svg xmlns="http://www.w3.org/2000/svg" width="23.939" height="20.244" viewBox="0 0 23.939 20.244">
  <g id="Grupo_5711" data-name="Grupo 5711" transform="translate(-53 -361.756)">
    <g id="baseline-date_range-24px" transform="translate(53 361.756)">
      <path id="Caminho_1782" data-name="Caminho 1782" d="M7.426,9.31H5.951v1.624H7.426Zm2.951,0H8.9v1.624h1.475Zm2.592,0H11.852v1.624ZM14.8,3.624h-.738V2H12.589V3.624h-5.9V2H5.213V3.624H4.475A1.549,1.549,0,0,0,3.007,5.249L3,16.62a1.555,1.555,0,0,0,1.475,1.624H14.8a1.56,1.56,0,0,0,1.475-1.624V14.575l-1.459.57L14.8,16.62a92.516,92.516,0,0,1-10.325,0c-.619-.061,0,.506,0,0V5.249H14.816c.136,0,0,1.274,0,1.274l1.348-1.747a1.294,1.294,0,0,0-.381-.733,1.512,1.512,0,0,0-.983-.419Zm0,13H4.475V7.685h0s.02,8.937,0,8.935,7.744.5,10.325,0Z" fill="#fff"/>
      <path id="Caminho_1783" data-name="Caminho 1783" d="M0,0H19.277V20.244H0Z" fill="none"/>
    </g>
    <g id="Caminho_2225" data-name="Caminho 2225" transform="translate(72.583 361.85) rotate(36.011)">
      <path id="Caminho_2226" data-name="Caminho 2226" d="M2.853,13.91C2.383,13.423,1.39,12.243.5,11.135V.5H4.575V11.17A28.774,28.774,0,0,1,2.853,13.91Z" transform="translate(0.403 2.032)" fill="#fff"/>
      <path id="Caminho_2227" data-name="Caminho 2227" d="M1,1V13.075c.688.949,1.45,1.966,1.982,2.636.4-.663.939-1.648,1.4-2.553V1H1M0,0H5.385V13.4s-1.952,3.85-2.341,3.85l-.017,0A40.753,40.753,0,0,1,0,13.4Z" fill="none"/>
    </g>
  </g>
</svg>
