<svg xmlns="http://www.w3.org/2000/svg" width="30.3" height="30.3" viewBox="0 0 30.3 30.3">
  <g id="Grupo_5151" data-name="Grupo 5151" transform="translate(-1860.502 -449.547)">
    <path id="Caminho_1733" data-name="Caminho 1733" d="M14.65,0A14.65,14.65,0,1,0,29.3,14.651,14.65,14.65,0,0,0,14.65,0Z" transform="translate(1861.001 450.046)" fill="#707070" />
    <g id="baseline-remove_red_eye-24px_1_" data-name="baseline-remove_red_eye-24px (1)" transform="translate(1864.001 453)">
      <path id="Caminho_2069" data-name="Caminho 2069" d="M0,0H24V24H0Z" fill="none"/>
      <path id="Caminho_2070" data-name="Caminho 2070" d="M12,4.5A11.827,11.827,0,0,0,1,12a11.817,11.817,0,0,0,22,0A11.827,11.827,0,0,0,12,4.5ZM12,17a5,5,0,1,1,5-5A5,5,0,0,1,12,17Zm0-8a3,3,0,1,0,3,3A3,3,0,0,0,12,9Z" fill="#fff"/>
    </g>
  </g>
</svg>
