<svg xmlns="http://www.w3.org/2000/svg" width="24.354" height="14.743" viewBox="0 0 24.354 14.743">
  <g id="Componente_58_72" data-name="Componente 58 – 72" transform="translate(0 0)">
    <g id="Grupo_4107" data-name="Grupo 4107" transform="translate(1 -2)">
      <g id="Grupo_5128" data-name="Grupo 5128">
        <g id="_67994-2" data-name="67994" transform="translate(-1 12)">
          <g id="Grupo_3159" data-name="Grupo 3159">
            <path id="Caminho_1720" data-name="Caminho 1720" d="M6.317,7.1a.163.163,0,0,0-.126-.06H5.572a2.108,2.108,0,0,0-.577-.946,4.479,4.479,0,0,0-3.637,0,2.118,2.118,0,0,0-.577.946H.163a.163.163,0,0,0-.159.2l.092.444a.163.163,0,0,0,.159.13H.437a1.1,1.1,0,0,0-.264.718,1.075,1.075,0,0,0,.34.807l.007.006V9.96a.244.244,0,0,0,.244.244h.57a.244.244,0,0,0,.244-.244V9.71h3.2v.25a.244.244,0,0,0,.244.244h.57a.244.244,0,0,0,.244-.244V9.351A1.116,1.116,0,0,0,5.9,7.807h.2a.162.162,0,0,0,.159-.13l.092-.444A.164.164,0,0,0,6.317,7.1Zm-4.69-.6a4.059,4.059,0,0,1,3.1,0,2.012,2.012,0,0,1,.419.793H1.207A2.012,2.012,0,0,1,1.626,6.5ZM.9,8.587a.48.48,0,1,1,.48.48A.48.48,0,0,1,.9,8.587Zm4.086.48a.48.48,0,1,1,.48-.48A.48.48,0,0,1,4.983,9.067Z" transform="translate(0 -5.707)" fill="#0f0e0e"/>
          </g>
        </g>
        <g id="_67994-3" data-name="67994" transform="translate(1 6)">
          <g id="Grupo_3159-2" data-name="Grupo 3159">
            <path id="Caminho_1720-2" data-name="Caminho 1720" d="M6.317,7.1a.163.163,0,0,0-.126-.06H5.572a2.108,2.108,0,0,0-.577-.946,4.479,4.479,0,0,0-3.637,0,2.118,2.118,0,0,0-.577.946H.163a.163.163,0,0,0-.159.2l.092.444a.163.163,0,0,0,.159.13H.437a1.1,1.1,0,0,0-.264.718,1.075,1.075,0,0,0,.34.807l.007.006V9.96a.244.244,0,0,0,.244.244h.57a.244.244,0,0,0,.244-.244V9.71h3.2v.25a.244.244,0,0,0,.244.244h.57a.244.244,0,0,0,.244-.244V9.351A1.116,1.116,0,0,0,5.9,7.807h.2a.162.162,0,0,0,.159-.13l.092-.444A.164.164,0,0,0,6.317,7.1Zm-4.69-.6a4.059,4.059,0,0,1,3.1,0,2.012,2.012,0,0,1,.419.793H1.207A2.012,2.012,0,0,1,1.626,6.5ZM.9,8.587a.48.48,0,1,1,.48.48A.48.48,0,0,1,.9,8.587Zm4.086.48a.48.48,0,1,1,.48-.48A.48.48,0,0,1,4.983,9.067Z" transform="translate(0 -5.707)" fill="#0f0e0e"/>
          </g>
        </g>
        <g id="Grupo_3159-3" data-name="Grupo 3159" transform="translate(15 6)">
          <path id="Caminho_1720-3" data-name="Caminho 1720" d="M6.317,7.1a.163.163,0,0,0-.126-.06H5.572a2.108,2.108,0,0,0-.577-.946,4.479,4.479,0,0,0-3.637,0,2.118,2.118,0,0,0-.577.946H.163a.163.163,0,0,0-.159.2l.092.444a.163.163,0,0,0,.159.13H.437a1.1,1.1,0,0,0-.264.718,1.075,1.075,0,0,0,.34.807l.007.006V9.96a.244.244,0,0,0,.244.244h.57a.244.244,0,0,0,.244-.244V9.71h3.2v.25a.244.244,0,0,0,.244.244h.57a.244.244,0,0,0,.244-.244V9.351A1.116,1.116,0,0,0,5.9,7.807h.2a.162.162,0,0,0,.159-.13l.092-.444A.164.164,0,0,0,6.317,7.1Zm-4.69-.6a4.059,4.059,0,0,1,3.1,0,2.012,2.012,0,0,1,.419.793H1.207A2.012,2.012,0,0,1,1.626,6.5ZM.9,8.587a.48.48,0,1,1,.48.48A.48.48,0,0,1,.9,8.587Zm4.086.48a.48.48,0,1,1,.48-.48A.48.48,0,0,1,4.983,9.067Z" transform="translate(0 -5.707)" fill="#0f0e0e"/>
        </g>
        <g id="Grupo_4102" data-name="Grupo 4102" transform="translate(8)">
          <path id="Caminho_1720-4" data-name="Caminho 1720" d="M5.619,6.945a.145.145,0,0,0-.112-.053h-.55a1.875,1.875,0,0,0-.514-.841,3.985,3.985,0,0,0-3.235,0,1.884,1.884,0,0,0-.514.841H.145A.145.145,0,0,0,0,7.066l.081.395a.145.145,0,0,0,.142.115H.389a.977.977,0,0,0-.235.639.957.957,0,0,0,.3.718l.006.005V9.49a.217.217,0,0,0,.217.217h.507A.217.217,0,0,0,1.4,9.49V9.268H4.247V9.49a.217.217,0,0,0,.217.217h.507a.217.217,0,0,0,.217-.217V8.949a.993.993,0,0,0,.063-1.373h.174a.144.144,0,0,0,.142-.115l.082-.395A.146.146,0,0,0,5.619,6.945ZM1.447,6.413a3.611,3.611,0,0,1,2.758,0,1.789,1.789,0,0,1,.373.706h-3.5A1.79,1.79,0,0,1,1.447,6.413ZM.8,8.269a.427.427,0,1,1,.427.427A.427.427,0,0,1,.8,8.269ZM4.433,8.7a.427.427,0,1,1,.427-.427A.427.427,0,0,1,4.433,8.7Z" transform="translate(0 -3.707)" fill="#0f0e0e"/>
        </g>
        <g id="_67994-4" data-name="67994" transform="translate(16 12)">
          <g id="Grupo_3159-4" data-name="Grupo 3159" transform="translate(1)">
            <path id="Caminho_1720-5" data-name="Caminho 1720" d="M6.317,7.1a.163.163,0,0,0-.126-.06H5.572a2.108,2.108,0,0,0-.577-.946,4.479,4.479,0,0,0-3.637,0,2.118,2.118,0,0,0-.577.946H.163a.163.163,0,0,0-.159.2l.092.444a.163.163,0,0,0,.159.13H.437a1.1,1.1,0,0,0-.264.718,1.075,1.075,0,0,0,.34.807l.007.006V9.96a.244.244,0,0,0,.244.244h.57a.244.244,0,0,0,.244-.244V9.71h3.2v.25a.244.244,0,0,0,.244.244h.57a.244.244,0,0,0,.244-.244V9.351A1.116,1.116,0,0,0,5.9,7.807h.2a.162.162,0,0,0,.159-.13l.092-.444A.164.164,0,0,0,6.317,7.1Zm-4.69-.6a4.059,4.059,0,0,1,3.1,0,2.012,2.012,0,0,1,.419.793H1.207A2.012,2.012,0,0,1,1.626,6.5ZM.9,8.587a.48.48,0,1,1,.48.48A.48.48,0,0,1,.9,8.587Zm4.086.48a.48.48,0,1,1,.48-.48A.48.48,0,0,1,4.983,9.067Z" transform="translate(0 -5.707)" fill="#0f0e0e"/>
          </g>
        </g>
        <path id="Subtração_5" data-name="Subtração 5" d="M10.934,3.745H-.049A4.815,4.815,0,0,1,1.626.43,5.788,5.788,0,0,1,5.354-.979h.108a5.276,5.276,0,0,1,5.472,4.724Z" transform="translate(5.572 12.998)" fill="#0f0e0e"/>
        <path id="Caminho_2267" data-name="Caminho 2267" d="M2.353,0A2.353,2.353,0,1,1,0,2.353,2.353,2.353,0,0,1,2.353,0Z" transform="translate(8.648 7.071)" fill="#0f0e0e"/>
      </g>
    </g>
  </g>
</svg>
