<svg xmlns="http://www.w3.org/2000/svg" width="21.432" height="14.9" viewBox="0 0 21.432 14.9">
  <g id="Grupo_5860" data-name="Grupo 5860" transform="translate(-19.961 -366.641)">
    <g id="Grupo_5862" data-name="Grupo 5862">
      <g id="Grupo_5931" data-name="Grupo 5931">
        <g id="baseline-cloud_queue-24px" transform="translate(29.052 366.641)">
          <path id="Caminho_2019" data-name="Caminho 2019" d="M2.391,7.106a3.853,3.853,0,0,1,7.2-1.028,3.084,3.084,0,0,1-.334,6.15H2.571a2.564,2.564,0,0,1-.18-5.121Z" transform="translate(0 -4)" fill="#005b9e"/>
        </g>
        <g id="_67994" data-name="67994" transform="translate(19.961 369.768)">
          <g id="Grupo_3159" data-name="Grupo 3159" transform="translate(0 0)">
            <path id="Caminho_1720" data-name="Caminho 1720" d="M.985,9.311H2.659a5.706,5.706,0,0,1,1.563-2.56c1.018-.67,6.037-.644,6.037-.644S9.114,6.56,8.95,7.372L8.734,10a2.636,2.636,0,0,0,.871,1.39,5.617,5.617,0,0,0,1.92.811h5.668c0,.86-.242,2.77-.839,3.32l-.019.015v1.681a.661.661,0,0,1-.661.661H14.13a.661.661,0,0,1-.661-.661v-.676H4.82v.676a.661.661,0,0,1-.661.661H2.615a.662.662,0,0,1-.661-.661V15.572a3.021,3.021,0,0,1-.193-4.179H1.233A.439.439,0,0,1,.8,11.041L.553,9.84C.528,9.711.853,9.311.985,9.311ZM8.95,7.372c-.871.043-3.294.016-4,.482A5.446,5.446,0,0,0,3.813,10c.966-.1,4.92,0,4.92,0Zm6.367,5.965c0-.718-2.6-.552-2.6.166a1.3,1.3,0,0,0,1.3,1.3A1.452,1.452,0,0,0,15.318,13.337ZM4.255,14.8a1.3,1.3,0,1,0-1.3-1.3A1.3,1.3,0,0,0,4.255,14.8Z" transform="translate(-0.552 -6.108)" fill="#005b9e"/>
          </g>
        </g>
      </g>
    </g>
  </g>
</svg>
