<svg xmlns="http://www.w3.org/2000/svg" width="38" height="38" viewBox="0 0 38 38">
  <g id="Grupo_5152" data-name="Grupo 5152" transform="translate(-1618 -334)">
    <circle id="Elipse_317" data-name="Elipse 317" cx="19" cy="19" r="19" transform="translate(1618 334)" fill="#005b9e"/>
    <g id="Grupo_5151" data-name="Grupo 5151" transform="translate(1623.221 341.493)">
      <path id="Caminho_1703" data-name="Caminho 1703" d="M24.366,25.03c.216.2.391.132.391-.15v-7.3a1.094,1.094,0,0,0-1.1-.981H15.8c-.305,0-.378.162-.162.362l2.795,2.585-1.14,1.049L12,25.482,9.206,22.9a.585.585,0,0,0-.782,0L.648,30.09a1.938,1.938,0,0,0,0,2.892l.054.051a2.341,2.341,0,0,0,3.128,0l4.984-4.609,2.8,2.582a.587.587,0,0,0,.783,0l9.218-8.522Z" transform="translate(0 -16.594)" fill="#fff"/>
      <g id="Grupo_5010" data-name="Grupo 5010">
        <g id="Grupo_5009" data-name="Grupo 5009">
          <path id="Caminho_1697" data-name="Caminho 1697" d="M87.424,252.558a1.736,1.736,0,0,0-.448,1.073v4.521h2.643v-7.146c0-.347-.2-.43-.448-.184Z" transform="translate(-81.56 -236.492)" fill="#fff"/>
          <path id="Caminho_1698" data-name="Caminho 1698" d="M236.494,197.013a1.486,1.486,0,0,0-.489.989v8.111h2.884V195.582c0-.32-.218-.4-.489-.169Z" transform="translate(-220.174 -184.452)" fill="#fff"/>
          <path id="Caminho_1699" data-name="Caminho 1699" d="M286.108,149.507a1.469,1.469,0,0,0-.445.956v11.281H288.1V148.292c0-.309-.2-.383-.445-.164Z" transform="translate(-266.132 -140.083)" fill="#fff"/>
          <path id="Caminho_1700" data-name="Caminho 1700" d="M186.846,246.805l-.262.262a1.488,1.488,0,0,0-.261.891v4.96h2.625v-7.585c0-.347-.2-.43-.445-.184Z" transform="translate(-173.826 -231.258)" fill="#fff"/>
          <path id="Caminho_1702" data-name="Caminho 1702" d="M34.619,301.722l-.848.849a1.585,1.585,0,0,0-.444.943v.5h2.93v-3.3c0-.347-.2-.43-.445-.184Z" transform="translate(-31.749 -282.351)" fill="#fff"/>
        </g>
        <path id="Caminho_1701" data-name="Caminho 1701" d="M137.1,249.314c-.246-.245-.445-.163-.445.184v7.263h2.625v-4.644a1.691,1.691,0,0,0-.422-1.049l-.422-.42Z" transform="translate(-127.484 -235.101)" fill="#fff"/>
      </g>
    </g>
  </g>
</svg>
