<svg id="Grupo_3141" data-name="Grupo 3141" xmlns="http://www.w3.org/2000/svg" width="28.44" height="22.633" viewBox="0 0 28.44 22.633">
  <path id="Caminho_742" data-name="Caminho 742" d="M75.859,120.939,65.716,129.3a.239.239,0,0,1-.009.053.242.242,0,0,0-.009.053v8.467A1.146,1.146,0,0,0,66.827,139H73.6v-6.774h4.516V139h6.774a1.147,1.147,0,0,0,1.129-1.13v-8.467A.249.249,0,0,0,86,129.3Z" transform="translate(-61.639 -116.37)" fill="#047"/>
  <path id="Caminho_743" data-name="Caminho 743" d="M28.243,58.019,24.38,54.809v-7.2a.544.544,0,0,0-.565-.564H20.429a.543.543,0,0,0-.564.564v3.44l-4.3-3.6a2.188,2.188,0,0,0-2.681,0L.2,58.019A.512.512,0,0,0,0,58.4a.571.571,0,0,0,.123.415l1.094,1.305a.6.6,0,0,0,.37.194.656.656,0,0,0,.424-.123L14.22,50.011,26.427,60.189a.544.544,0,0,0,.37.123h.053a.6.6,0,0,0,.37-.194l1.094-1.305a.571.571,0,0,0,.123-.415A.514.514,0,0,0,28.243,58.019Z" transform="translate(0.001 -46.994)" fill="#047"/>
</svg>
