<svg xmlns="http://www.w3.org/2000/svg" width="36" height="36" viewBox="0 0 36 36">
  <g id="Grupo_6071" data-name="Grupo 6071" transform="translate(-342 -932)">
    <g id="Grupo_5421" data-name="Grupo 5421" transform="translate(-788 409)">
      <circle id="Elipse_391" data-name="Elipse 391" cx="18" cy="18" r="18" transform="translate(1130 523)" fill="#d53343"/>
    </g>
    <g id="Grupo_6070" data-name="Grupo 6070" transform="translate(344 940.853)">
      <g id="_67994" data-name="67994" transform="translate(2.355 6.065) rotate(-13)">
        <g id="Grupo_3159" data-name="Grupo 3159" transform="translate(0 0)">
          <path id="Caminho_1720" data-name="Caminho 1720" d="M21.89,4.821a.566.566,0,0,0-.437-.208H19.31a7.3,7.3,0,0,0-2-3.277c-2.709-1.782-9.893-1.782-12.6,0a7.34,7.34,0,0,0-2,3.277H.564a.564.564,0,0,0-.552.678L.329,6.829a.564.564,0,0,0,.552.449h.635A3.806,3.806,0,0,0,.6,9.766a3.727,3.727,0,0,0,1.178,2.8c.008.007.017.012.025.02v2.152a.846.846,0,0,0,.846.846H4.627a.846.846,0,0,0,.846-.846v-.865H16.544v.865a.846.846,0,0,0,.846.846h1.976a.847.847,0,0,0,.846-.846V12.627a3.868,3.868,0,0,0,.247-5.349h.677a.562.562,0,0,0,.552-.45l.318-1.537A.568.568,0,0,0,21.89,4.821ZM5.636,2.749c2.159-1.421,8.585-1.421,10.743,0A6.971,6.971,0,0,1,17.832,5.5H4.184A6.971,6.971,0,0,1,5.636,2.749ZM3.107,9.978a1.664,1.664,0,1,1,1.664,1.664A1.663,1.663,0,0,1,3.107,9.978Zm14.16,1.664a1.663,1.663,0,1,1,1.664-1.664A1.664,1.664,0,0,1,17.267,11.642Z" fill="#fff"/>
        </g>
      </g>
    </g>
    <line id="Linha_508" data-name="Linha 508" x1="1" y1="5" transform="translate(360.5 936.5)" fill="none" stroke="#fff" stroke-width="1"/>
    <line id="Linha_509" data-name="Linha 509" y1="4" x2="2" transform="translate(365.5 937.5)" fill="none" stroke="#fff" stroke-width="1"/>
    <line id="Linha_510" data-name="Linha 510" y1="2" x2="5" transform="translate(367.5 942.5)" fill="none" stroke="#fff" stroke-width="1"/>
  </g>
</svg>
