<svg xmlns="http://www.w3.org/2000/svg" width="36" height="36" viewBox="0 0 36 36">
  <g id="Grupo_6065" data-name="Grupo 6065" transform="translate(-868 -432)">
    <circle id="Elipse_331" data-name="Elipse 331" cx="18" cy="18" r="18" transform="translate(868 432)" fill="#df9d01"/>
    <path id="Caminho_2137" data-name="Caminho 2137" d="M10.173,12.76H7.782v2.391h2.391Zm4.782,0H12.564v2.391h2.391Zm4.782,0H17.346v2.391h2.391Zm2.391-8.369h-1.2V2H18.542V4.391H8.978V2H6.587V4.391h-1.2A2.38,2.38,0,0,0,3.012,6.782L3,23.519A2.39,2.39,0,0,0,5.391,25.91H22.128a2.4,2.4,0,0,0,2.391-2.391V6.782A2.4,2.4,0,0,0,22.128,4.391Zm0,19.128H5.391V10.369H22.128Z" transform="translate(872.166 435.684)" fill="#fff"/>
  </g>
</svg>
