<svg xmlns="http://www.w3.org/2000/svg" width="21.631" height="21.631" viewBox="0 0 21.631 21.631">
  <g id="Grupo_3401" data-name="Grupo 3401" transform="translate(0.501 0.5)">
    <path id="Caminho_1733" data-name="Caminho 1733" d="M10.315,0A10.315,10.315,0,1,0,20.63,10.316,10.315,10.315,0,0,0,10.315,0Z" transform="translate(0 -0.001)" fill="#059e00" stroke="#059e00" stroke-width="1"/>
    <path id="_1666514" data-name="1666514" d="M13.224,10.916a1.512,1.512,0,0,1-1.48,1.823H2.012a1.512,1.512,0,0,1-1.48-1.823A6.475,6.475,0,0,1,4.851,6.094,3.382,3.382,0,0,1,6.878,0a3.449,3.449,0,0,1,1.9.582.5.5,0,1,1-.555.827A2.441,2.441,0,0,0,6.878,1,2.388,2.388,0,0,0,6.761,5.77H7a2.368,2.368,0,0,0,1.633-.76.5.5,0,0,1,.73.677c-.139.15-.454.407-.454.407a11.789,11.789,0,0,1,3.358,2.548.5.5,0,0,1-.828.554A5.483,5.483,0,0,0,7,6.765l-.118,0-.127,0a5.5,5.5,0,0,0-5.244,4.353.519.519,0,0,0,.106.436.506.506,0,0,0,.4.189h9.732a.507.507,0,0,0,.4-.189.519.519,0,0,0,.106-.436.5.5,0,0,1,.976-.2Zm.032-8.726v1a1,1,0,0,1-1,1H10.765a.5.5,0,0,1-.5-.5v-.5h-.8v.5a.5.5,0,0,1-1,0v-.5H7.725v.746a.5.5,0,0,1-1,0V2.687a.5.5,0,0,1,.5-.5h3.04v-.5a.5.5,0,0,1,.5-.5H12.26A1,1,0,0,1,13.256,2.19Zm-1,0h-1s-.249.746,0,1,1,0,1,0Zm0,0" transform="translate(3.247 3.765)" fill="#fff"/>
  </g>
</svg>
