<svg xmlns="http://www.w3.org/2000/svg" width="20.629" height="20.631" viewBox="0 0 20.629 20.631">
  <path id="Caminho_1725" data-name="Caminho 1725" d="M10.316,0A10.315,10.315,0,1,0,20.631,10.315,10.315,10.315,0,0,0,10.316,0Zm4.9,7.423-.98.98L12.245,6.409l-.757.757L13.483,9.16,8.592,14.051,6.6,12.057l-.757.757,1.994,1.994-.487.487-.009-.009a.386.386,0,0,1-.246.177l-1.86.415a.387.387,0,0,1-.461-.462l.414-1.859a.387.387,0,0,1,.177-.246L5.353,13.3l7.872-7.872a.3.3,0,0,1,.418,0L15.22,7A.3.3,0,0,1,15.22,7.423Z" transform="translate(-0.001 0)" fill="#005b9e"/>
</svg>
