<svg xmlns="http://www.w3.org/2000/svg" width="29" height="29" viewBox="0 0 29 29">
  <g id="Grupo_5750" data-name="Grupo 5750" transform="translate(0)">
    <circle id="Elipse_313" data-name="Elipse 313" cx="2.153" cy="2.153" r="2.153" transform="translate(12.39 8.479)" fill="#005b9e"/>
    <path id="Caminho_2197" data-name="Caminho 2197" d="M14.5,0A14.5,14.5,0,1,0,29,14.5,14.5,14.5,0,0,0,14.5,0Zm-.03,6.639h.061a4.522,4.522,0,0,1,4.431,4.5c0,2.988-3.192,6.013-4.461,7.1-.085-.073-.179-.154-.279-.244l0,0c-1.4-1.248-4.177-4.064-4.177-6.849A4.522,4.522,0,0,1,14.471,6.639Zm.093,15.812c-2.674,0-5.381-.767-5.381-2.233,0-1.029,1.333-1.713,3.052-2.03.332.334.647.629.923.875-1.872.209-2.972.8-2.972,1.155,0,.433,1.662,1.23,4.378,1.23s4.379-.8,4.379-1.23c0-.36-1.146-.968-3.086-1.165.278-.249.6-.546.931-.884,1.77.308,3.159,1,3.159,2.049C19.946,21.684,17.238,22.451,14.564,22.451Z" transform="translate(-0.001)" fill="#005b9e"/>
  </g>
</svg>
