<svg id="Grupo_5130" data-name="Grupo 5130" xmlns="http://www.w3.org/2000/svg" width="30.207" height="30.208" viewBox="0 0 30.207 30.208">
  <g id="Grupo_5131" data-name="Grupo 5131">
    <g id="_64673" data-name="64673">
      <g id="Grupo_4145" data-name="Grupo 4145">
        <path id="Caminho_1892" data-name="Caminho 1892" d="M26.623,20.919A12.257,12.257,0,0,0,9.289,3.584,12.019,12.019,0,0,0,7.445,18.377a.516.516,0,0,1-.071.614L1.121,25.245C-.124,26.49-.42,28.23.683,29.334l.19.19c1.1,1.1,2.844.808,4.089-.437l6.24-6.24a.523.523,0,0,1,.627-.084A12.019,12.019,0,0,0,26.623,20.919ZM11.552,18.656a9.057,9.057,0,1,1,12.808,0A9.067,9.067,0,0,1,11.552,18.656Z" transform="translate(0 0)" fill="#005b9e"/>
      </g>
    </g>
    <path id="Caminho_1720" data-name="Caminho 1720" d="M11.364,8.21a.294.294,0,0,0-.227-.108H10.025A3.792,3.792,0,0,0,8.986,6.4c-1.406-.925-5.136-.925-6.542,0A3.811,3.811,0,0,0,1.4,8.1H.293a.293.293,0,0,0-.287.352l.165.8a.293.293,0,0,0,.287.233h.33a1.976,1.976,0,0,0-.474,1.291A1.935,1.935,0,0,0,.924,12.23l.013.01v1.117a.439.439,0,0,0,.439.439H2.4a.439.439,0,0,0,.439-.439v-.449H8.589v.449a.439.439,0,0,0,.439.439h1.026a.44.44,0,0,0,.439-.439v-1.1a2.008,2.008,0,0,0,.128-2.777h.351a.292.292,0,0,0,.287-.234l.165-.8A.3.3,0,0,0,11.364,8.21ZM2.926,7.134a7.3,7.3,0,0,1,5.577,0,3.619,3.619,0,0,1,.754,1.427H2.172A3.619,3.619,0,0,1,2.926,7.134ZM1.613,10.887a.864.864,0,1,1,.864.864A.863.863,0,0,1,1.613,10.887Zm7.351.864a.863.863,0,1,1,.864-.864A.864.864,0,0,1,8.964,11.751Z" transform="translate(12.662 1.753)" fill="#005b9e"/>
  </g>
</svg>
