<svg xmlns="http://www.w3.org/2000/svg" width="21.955" height="23" viewBox="0 0 21.955 23">
  <g id="Grupo_5889" data-name="Grupo 5889" transform="translate(-4.106 -7)">
    <g id="Grupo_4735" data-name="Grupo 4735" transform="translate(4.106 7)">
      <ellipse id="Elipse_304" data-name="Elipse 304" cx="10.978" cy="11.5" rx="10.978" ry="11.5" fill="#005b9e"/>
      <path id="precaucao" d="M0,1.308A.364.364,0,0,1,.3.972S5.534,0,6.367,0s6.085.973,6.085.973a.36.36,0,0,1,.292.334V6.381a6.939,6.939,0,0,1-3.014,5.27s-2.481,1.7-3.326,1.7S3.02,11.635,3.02,11.635A6.935,6.935,0,0,1,0,6.381V1.308ZM.708,6.381a6.213,6.213,0,0,0,2.7,4.631l.1.069q.813.536,1.663,1.006a4.41,4.41,0,0,0,1.232.522A4.21,4.21,0,0,0,7.6,12.1c.14-.075.287-.159.437-.247q.612-.359,1.2-.754l.129-.087a6.2,6.2,0,0,0,2.666-4.631V1.65q-1.4-.255-2.8-.493C7.725.9,6.647.742,6.367.742S5.013.9,3.5,1.156l-.366.063Q1.922,1.427.709,1.65V6.381Z" transform="translate(4.773 5.649)" fill="#fff"/>
    </g>
    <g id="Grupo_4741" data-name="Grupo 4741" transform="translate(9.756 14.5)">
      <g id="Grupo_4739" data-name="Grupo 4739" transform="translate(0 1.249)">
        <g id="Grupo_4704" data-name="Grupo 4704" transform="translate(0 0)">
          <g id="_67994" data-name="67994" transform="matrix(0.985, -0.174, 0.174, 0.985, 0, 1.44)">
            <g id="Grupo_3159" data-name="Grupo 3159" transform="translate(0 0)">
              <path id="Caminho_1720" data-name="Caminho 1720" d="M7.867,1.749a.2.2,0,0,0-.157-.077l-.771.006A2.711,2.711,0,0,0,6.229.452,5.372,5.372,0,0,0,1.691.489a2.839,2.839,0,0,0-.73,1.238L.19,1.734a.2.2,0,0,0-.158.08.22.22,0,0,0-.043.177l.11.577a.2.2,0,0,0,.2.167l.229,0a1.492,1.492,0,0,0-.336.938A1.41,1.41,0,0,0,.6,4.721l.009.007-.006.809a.306.306,0,0,0,.3.316l.712-.006a.318.318,0,0,0,.307-.321l0-.325,3.987-.032,0,.325a.306.306,0,0,0,.3.316L6.927,5.8a.318.318,0,0,0,.307-.321L7.24,4.69A1.471,1.471,0,0,0,7.682,3.64a1.445,1.445,0,0,0-.337-.962l.244,0a.209.209,0,0,0,.2-.171l.119-.579A.219.219,0,0,0,7.867,1.749ZM2.021,1.017A4.866,4.866,0,0,1,5.889.986,2.607,2.607,0,0,1,6.4,2.016l-4.914.04A2.71,2.71,0,0,1,2.021,1.017ZM1.09,3.744a.625.625,0,0,1,.6-.63.6.6,0,0,1,.594.621.624.624,0,0,1-.6.631A.6.6,0,0,1,1.09,3.744Zm5.094.584a.6.6,0,0,1-.594-.621.625.625,0,0,1,.6-.63.6.6,0,0,1,.594.621A.625.625,0,0,1,6.183,4.328Z" fill="#fff"/>
            </g>
          </g>
        </g>
      </g>
      <line id="Linha_355" data-name="Linha 355" y1="2" x2="0.955" transform="translate(6.472)" fill="none" stroke="#fff" stroke-width="1"/>
      <line id="Linha_356" data-name="Linha 356" x1="1.909" y2="2" transform="translate(8.382)" fill="none" stroke="#f5f5f0" stroke-width="1"/>
      <line id="Linha_358" data-name="Linha 358" x1="1.909" y2="1" transform="translate(8.382 3)" fill="none" stroke="#f5f5f0" stroke-width="1"/>
    </g>
  </g>
</svg>
