<svg xmlns="http://www.w3.org/2000/svg" width="21.955" height="23" viewBox="0 0 21.955 23">
  <g id="Grupo_5890" data-name="Grupo 5890" transform="translate(-1.909 -7)">
    <g id="Grupo_4735" data-name="Grupo 4735" transform="translate(1.909 7)">
      <ellipse id="Elipse_304" data-name="Elipse 304" cx="10.978" cy="11.5" rx="10.978" ry="11.5" transform="translate(0)" fill="#005b9e"/>
      <path id="precaucao" d="M0,1.308A.364.364,0,0,1,.3.972S5.534,0,6.367,0s6.085.973,6.085.973a.36.36,0,0,1,.292.334V6.381a6.939,6.939,0,0,1-3.014,5.27s-2.481,1.7-3.326,1.7S3.02,11.635,3.02,11.635A6.935,6.935,0,0,1,0,6.381V1.308ZM.708,6.381a6.213,6.213,0,0,0,2.7,4.631l.1.069q.813.536,1.663,1.006a4.41,4.41,0,0,0,1.232.522A4.21,4.21,0,0,0,7.6,12.1c.14-.075.287-.159.437-.247q.612-.359,1.2-.754l.129-.087a6.2,6.2,0,0,0,2.666-4.631V1.65q-1.4-.255-2.8-.493C7.725.9,6.647.742,6.367.742S5.013.9,3.5,1.156l-.366.063Q1.922,1.427.709,1.65V6.381Z" transform="translate(4.773 5.649)" fill="#fff"/>
    </g>
    <path id="Caminho_1992" data-name="Caminho 1992" d="M9.43,14.518a1.815,1.815,0,0,0-.415-.746,1.573,1.573,0,0,0-1.163-.522,1.545,1.545,0,0,0-.649.144L5.585,11.642,7.733,9.333l.509-.016a.178.178,0,0,0,.149-.1L9.119,7.9a.207.207,0,0,0-.027-.238l-.629-.681a.17.17,0,0,0-.219-.029l-1.224.789a.2.2,0,0,0-.088.162l-.014.549L4.774,10.764,3.3,9.171A1.773,1.773,0,0,0,1.963,7.113a1.544,1.544,0,0,0-1.191.273.2.2,0,0,0-.048.27.186.186,0,0,0,.061.061L1.6,8.21a.572.572,0,0,1,.07.722c-.146.28-.424.424-.606.315L.308,8.8a.173.173,0,0,0-.244.077.208.208,0,0,0-.022.106,1.7,1.7,0,0,0,1.744,1.666,1.541,1.541,0,0,0,.544-.14l1.337,1.449-.579.627-.131-.14a.355.355,0,0,0-.519,0l-.18.195a.413.413,0,0,0-.02.535l-2.126,2.3a.413.413,0,0,0-.011.551l.011.012L.72,16.7a.34.34,0,0,0,.508.012l.011-.012,2.128-2.3a.34.34,0,0,0,.494-.021l.18-.195a.413.413,0,0,0,.011-.551l-.011-.012-.131-.142.575-.637,1.743,1.889a1.772,1.772,0,0,0,1.349,2.052,1.568,1.568,0,0,0,1.448-.51.206.206,0,0,0-.015-.275.176.176,0,0,0-.066-.041l-1.012-.294a.347.347,0,0,1-.212-.224.771.771,0,0,1-.018-.459c.075-.306.315-.524.516-.465l1,.292a.156.156,0,0,0,.049,0,.187.187,0,0,0,.182-.192A.208.208,0,0,0,9.43,14.518ZM7.217,8.663a.2.2,0,0,0,.052-.132l.014-.52L8.3,7.355l.431.467-.593,1.1-.489.019A.173.173,0,0,0,7.53,9L5.337,11.373l-.309-.335ZM.984,16.422l-.617-.664L2.5,13.449l.309.335.295.331Zm2.63-2.336-.237-.259-.092-.1L2.53,12.9l1.084,1.421.174-.432Zm.034-.888-.309-.335.579-.627.309.335Zm4.659.936a.584.584,0,0,0-.164-.023.909.909,0,0,0-.793.763,1.19,1.19,0,0,0,.034.711.709.709,0,0,0,.451.448l.669.195a1.231,1.231,0,0,1-1.762-.483A1.492,1.492,0,0,1,6.6,14.713a.206.206,0,0,0-.049-.181L2.5,10.139a.169.169,0,0,0-.212-.027,1.212,1.212,0,0,1-.6.162A1.293,1.293,0,0,1,.473,9.356l.41.247a.6.6,0,0,0,.313.088.938.938,0,0,0,.782-.553.959.959,0,0,0-.21-1.254l-.523-.321a1.261,1.261,0,0,1,1.643.843,1.5,1.5,0,0,1,.042.783.206.206,0,0,0,.049.181l4.06,4.4a.17.17,0,0,0,.21.035,1.214,1.214,0,0,1,.6-.162,1.268,1.268,0,0,1,1.107.685Z" transform="translate(8.395 7.07)" fill="#fff"/>
  </g>
</svg>
