<svg id="Grupo_6047" data-name="Grupo 6047" xmlns="http://www.w3.org/2000/svg" width="23.939" height="20.244" viewBox="0 0 23.939 20.244">
  <g id="baseline-date_range-24px">
    <path id="Caminho_1782" data-name="Caminho 1782" d="M7.426,9.31H5.951v1.624H7.426Zm2.951,0H8.9v1.624h1.475Zm2.951,0H11.852v1.624h1.475ZM14.8,3.624h-.738V2H12.589V3.624h-5.9V2H5.213V3.624H4.475A1.549,1.549,0,0,0,3.007,5.249L3,16.62a1.555,1.555,0,0,0,1.475,1.624H14.8a1.56,1.56,0,0,0,1.475-1.624V5.249A1.56,1.56,0,0,0,14.8,3.624Zm0,13H4.475V7.685H14.8Z" fill="#005b9e"/>
    <path id="Caminho_1783" data-name="Caminho 1783" d="M0,0H19.277V20.244H0Z" fill="none"/>
  </g>
  <g id="Caminho_2225" data-name="Caminho 2225" transform="matrix(0.809, 0.588, -0.588, 0.809, 19.583, 0.094)">
    <path id="Caminho_2226" data-name="Caminho 2226" d="M2.532,16.06c-.506-.584-1.574-2-2.532-3.323V0H4.385V12.779A35.228,35.228,0,0,1,2.532,16.06Z" transform="translate(0.5 0.5)" fill="#fff"/>
    <path id="Caminho_2227" data-name="Caminho 2227" d="M1,1V13.075c.688.949,1.45,1.966,1.982,2.636.4-.663.939-1.648,1.4-2.553V1H1M0,0H5.385V13.4s-1.952,3.85-2.341,3.85H3.027A40.753,40.753,0,0,1,0,13.4Z" fill="#005b9e"/>
  </g>
</svg>
