<svg xmlns="http://www.w3.org/2000/svg" width="21.275" height="23" viewBox="0 0 21.275 23">
  <g id="Grupo_5887" data-name="Grupo 5887" transform="translate(-3.7 -7)">
    <g id="Grupo_4735" data-name="Grupo 4735" transform="translate(3.7 7)">
      <ellipse id="Elipse_304" data-name="Elipse 304" cx="10.637" cy="11.5" rx="10.637" ry="11.5" fill="#005b9e"/>
      <path id="precaucao" d="M0,1.308A.36.36,0,0,1,.29.972S5.363,0,6.169,0s5.9.973,5.9.973a.357.357,0,0,1,.283.334V6.381a6.989,6.989,0,0,1-2.921,5.27s-2.4,1.7-3.223,1.7-3.279-1.716-3.279-1.716A6.984,6.984,0,0,1,0,6.381V1.308ZM.686,6.381A6.255,6.255,0,0,0,3.3,11.012l.1.069q.788.536,1.612,1.006a4.2,4.2,0,0,0,1.194.522,4.009,4.009,0,0,0,1.16-.509c.136-.075.278-.159.424-.247q.593-.359,1.165-.754l.125-.087a6.247,6.247,0,0,0,2.583-4.631V1.65q-1.353-.255-2.709-.493C7.485.9,6.441.742,6.17.742S4.858.9,3.394,1.156l-.355.063Q1.862,1.427.687,1.65V6.381ZM5.738,3.623a.378.378,0,0,1,.326-.214H7.409c.133,0,.2.094.144.209l-.88,1.934c-.053.115.009.211.144.214L8.386,5.8c.132,0,.178.088.1.191L5.978,9.377c-.307.412-.469.344-.363-.154l.409-1.9a.183.183,0,0,0-.188-.227H4.578a.148.148,0,0,1-.151-.214L5.737,3.623Z" transform="translate(4.625 5.649)" fill="#fff"/>
    </g>
  </g>
</svg>
