<svg xmlns="http://www.w3.org/2000/svg" width="36" height="36" viewBox="0 0 36 36">
  <g id="Grupo_6076" data-name="Grupo 6076" transform="translate(-399 -932)">
    <g id="Grupo_6073" data-name="Grupo 6073" transform="translate(57)">
      <g id="Grupo_6074" data-name="Grupo 6074">
        <g id="Grupo_5421" data-name="Grupo 5421" transform="translate(-788 409)">
          <circle id="Elipse_391" data-name="Elipse 391" cx="18" cy="18" r="18" transform="translate(1130 523)" fill="#0b81d8"/>
        </g>
      </g>
    </g>
    <path id="Caminho_2315" data-name="Caminho 2315" d="M16.169,7.084H15.3V5.346a4.346,4.346,0,1,0-8.692,0V7.084H5.738A1.743,1.743,0,0,0,4,8.823v8.692a1.743,1.743,0,0,0,1.738,1.738h10.43a1.743,1.743,0,0,0,1.738-1.738V8.823A1.743,1.743,0,0,0,16.169,7.084ZM8.259,5.346a2.694,2.694,0,0,1,5.389,0V7.084H8.259Zm6.171,8.692H11.823v2.608H10.084V14.038H7.477V12.3h2.608V9.692h1.738V12.3H14.43Z" transform="translate(405.996 938.406)" fill="#fff"/>
  </g>
</svg>
