<svg xmlns="http://www.w3.org/2000/svg" width="36" height="36" viewBox="0 0 36 36">
  <g id="Grupo_6079" data-name="Grupo 6079" transform="translate(-868 -490)">
    <path id="Caminho_2316" data-name="Caminho 2316" d="M18,0A18,18,0,1,1,0,18,18,18,0,0,1,18,0Z" transform="translate(868 490)" fill="#e67f08"/>
    <g id="_67994" data-name="67994" transform="translate(872.221 497.488)">
      <g id="Grupo_3159" data-name="Grupo 3159">
        <path id="Caminho_1720" data-name="Caminho 1720" d="M27.769,11.823a.718.718,0,0,0-.554-.264H24.5c-.671-1.769-1.545-3.5-2.538-4.157-3.436-2.26-12.55-2.26-15.986,0-.994.655-1.864,2.391-2.539,4.157H.715a.716.716,0,0,0-.7.86l.4,1.951a.715.715,0,0,0,.7.57h.805A4.829,4.829,0,0,0,.764,18.1a4.727,4.727,0,0,0,1.494,3.55c.011.009.021.016.031.025V24.4a1.074,1.074,0,0,0,1.073,1.073H5.869A1.074,1.074,0,0,0,6.942,24.4V23.3H20.987v1.1a1.074,1.074,0,0,0,1.073,1.073h2.507A1.074,1.074,0,0,0,25.64,24.4V21.725a4.906,4.906,0,0,0,.313-6.786h.859a.712.712,0,0,0,.7-.571l.4-1.95A.721.721,0,0,0,27.769,11.823ZM7.15,9.194c2.739-1.8,10.891-1.8,13.628,0,.532.349,1.216,1.76,1.844,3.488H5.308C5.933,10.955,6.618,9.544,7.15,9.194ZM3.942,18.365a2.11,2.11,0,1,1,2.11,2.11A2.11,2.11,0,0,1,3.942,18.365ZM21.9,20.476a2.11,2.11,0,1,1,2.11-2.11A2.111,2.111,0,0,1,21.9,20.476Z" transform="translate(0 -5.707)" fill="#fff"/>
      </g>
    </g>
  </g>
</svg>
