<svg xmlns="http://www.w3.org/2000/svg" width="36" height="36" viewBox="0 0 36 36">
  <g id="Grupo_6080" data-name="Grupo 6080" transform="translate(-868 -490)">
    <path id="Caminho_2316" data-name="Caminho 2316" d="M18,0A18,18,0,1,1,0,18,18,18,0,0,1,18,0Z" transform="translate(868 490)" fill="#e67f08"/>
    <g id="Caminho_2317" data-name="Caminho 2317" transform="translate(878 506)" fill="#fff">
      <path d="M 16.48241806030273 7.500004291534424 L 0.5175821185112 7.500004291534424 C 0.7931011915206909 3.596846342086792 4.268103122711182 0.5000041723251343 8.5 0.5000041723251343 C 12.73189735412598 0.5000041723251343 16.20689964294434 3.596846342086792 16.48241806030273 7.500004291534424 Z" stroke="none"/>
      <path d="M 8.5 1.000003814697266 C 4.728215217590332 1.000003814697266 1.597776412963867 3.612198829650879 1.076300621032715 7.000004291534424 L 15.92369937896729 7.000004291534424 C 15.40222358703613 3.612198829650879 12.27178573608398 1.000003814697266 8.5 1.000003814697266 M 8.5 3.814697265625e-06 C 13.19441986083984 3.814697265625e-06 17 3.581724166870117 17 8.000003814697266 L 0 8.000003814697266 L 0 8.543951034545898 C 0 8.543951034545898 0 8.408014297485352 0 8.000003814697266 C 0 3.581724166870117 3.805580139160156 3.814697265625e-06 8.5 3.814697265625e-06 Z M 17 8.000003814697266 C 17 8.167887687683105 17 8.223861694335938 17 8.223861694335938 L 17 8.000003814697266 Z" stroke="none" fill="#e67f08"/>
    </g>
    <g id="Caminho_2318" data-name="Caminho 2318" transform="translate(882 499)" fill="#fff">
      <path d="M 4.5 8.5 C 2.294389963150024 8.5 0.5 6.705609798431396 0.5 4.5 C 0.5 2.294389963150024 2.294389963150024 0.5 4.5 0.5 C 6.705609798431396 0.5 8.5 2.294389963150024 8.5 4.5 C 8.5 6.705609798431396 6.705609798431396 8.5 4.5 8.5 Z" stroke="none"/>
      <path d="M 4.5 1 C 2.570089817047119 1 1 2.570089817047119 1 4.5 C 1 6.429909706115723 2.570089817047119 8 4.5 8 C 6.429909706115723 8 8 6.429909706115723 8 4.5 C 8 2.570089817047119 6.429909706115723 1 4.5 1 M 4.5 0 C 6.98528003692627 0 9 2.01471996307373 9 4.5 C 9 6.98528003692627 6.98528003692627 9 4.5 9 C 2.01471996307373 9 0 6.98528003692627 0 4.5 C 0 2.01471996307373 2.01471996307373 0 4.5 0 Z" stroke="none" fill="#e67f08"/>
    </g>
  </g>
</svg>
