<svg xmlns="http://www.w3.org/2000/svg" width="28.527" height="19.578" viewBox="0 0 28.527 19.578">
  <g id="Grupo_6064" data-name="Grupo 6064" transform="translate(-13.24 -420.966)">
    <g id="Caminho_2241" data-name="Caminho 2241" transform="translate(13.24 428.154)" fill="#fff">
      <path d="M 7.994748115539551 3.791055917739868 L 0.5325954556465149 3.791055917739868 C 0.7762553691864014 1.936066508293152 2.35659384727478 0.4999958574771881 4.263671875 0.4999958574771881 C 6.170749664306641 0.4999958574771881 7.75108814239502 1.936066508293152 7.994748115539551 3.791055917739868 Z" stroke="none"/>
      <path d="M 4.263671875 0.9999959468841553 C 2.809633255004883 0.9999959468841553 1.574667930603027 1.963695049285889 1.153995513916016 3.291055679321289 L 7.373348236083984 3.291055679321289 C 6.952675819396973 1.963695049285889 5.717710494995117 0.9999959468841553 4.263671875 0.9999959468841553 M 4.263671875 -4.291534423828125e-06 C 6.61843204498291 -4.291534423828125e-06 8.527341842651367 1.921175956726074 8.527341842651367 4.291055679321289 L 1.9073486328125e-06 4.291055679321289 C 1.9073486328125e-06 1.921175956726074 1.90891170501709 -4.291534423828125e-06 4.263671875 -4.291534423828125e-06 Z M 1.9073486328125e-06 4.291055679321289 C 1.9073486328125e-06 4.381106853485107 1.9073486328125e-06 4.411131381988525 1.9073486328125e-06 4.411131381988525 L 1.9073486328125e-06 4.291055679321289 Z M 8.527341842651367 4.291055679321289 L 8.527341842651367 4.58282470703125 C 8.527341842651367 4.58282470703125 8.527341842651367 4.509909152984619 8.527341842651367 4.291055679321289 Z" stroke="none" fill="#fff"/>
    </g>
    <g id="Caminho_2242" data-name="Caminho 2242" transform="translate(15.15 422.965)" fill="#fff">
      <path d="M 2.094575166702271 3.689155101776123 C 1.215325117111206 3.689155101776123 0.4999951720237732 2.973825216293335 0.4999951720237732 2.094575166702271 C 0.4999951720237732 1.215325117111206 1.215325117111206 0.4999951720237732 2.094575166702271 0.4999951720237732 C 2.973825216293335 0.4999951720237732 3.689155101776123 1.215325117111206 3.689155101776123 2.094575166702271 C 3.689155101776123 2.973825216293335 2.973825216293335 3.689155101776123 2.094575166702271 3.689155101776123 Z" stroke="none"/>
      <path d="M 2.094575166702271 0.999995231628418 C 1.49102520942688 0.999995231628418 0.999995231628418 1.49102520942688 0.999995231628418 2.094575166702271 C 0.999995231628418 2.698125123977661 1.49102520942688 3.189155101776123 2.094575166702271 3.189155101776123 C 2.698125123977661 3.189155101776123 3.189155101776123 2.698125123977661 3.189155101776123 2.094575166702271 C 3.189155101776123 1.49102520942688 2.698125123977661 0.999995231628418 2.094575166702271 0.999995231628418 M 2.094575166702271 -4.76837158203125e-06 C 3.251375198364258 -4.76837158203125e-06 4.189155101776123 0.9377751350402832 4.189155101776123 2.094575166702271 C 4.189155101776123 3.251375198364258 3.251375198364258 4.189155101776123 2.094575166702271 4.189155101776123 C 0.9377751350402832 4.189155101776123 -4.76837158203125e-06 3.251375198364258 -4.76837158203125e-06 2.094575166702271 C -4.76837158203125e-06 0.9377751350402832 0.9377751350402832 -4.76837158203125e-06 2.094575166702271 -4.76837158203125e-06 Z" stroke="none" fill="#fff"/>
    </g>
    <g id="Caminho_2241-2" data-name="Caminho 2241" transform="translate(33.24 426.155)" fill="#fff">
      <path d="M 7.994748115539551 3.791055917739868 L 0.5325954556465149 3.791055917739868 C 0.7762553691864014 1.936066508293152 2.35659384727478 0.4999958574771881 4.263671875 0.4999958574771881 C 6.170749664306641 0.4999958574771881 7.75108814239502 1.936066508293152 7.994748115539551 3.791055917739868 Z" stroke="none"/>
      <path d="M 4.263671875 0.9999959468841553 C 2.809633255004883 0.9999959468841553 1.574667930603027 1.963695049285889 1.153995513916016 3.291055679321289 L 7.373348236083984 3.291055679321289 C 6.952675819396973 1.963695049285889 5.717710494995117 0.9999959468841553 4.263671875 0.9999959468841553 M 4.263671875 -4.291534423828125e-06 C 6.61843204498291 -4.291534423828125e-06 8.527341842651367 1.921175956726074 8.527341842651367 4.291055679321289 L 1.9073486328125e-06 4.291055679321289 C 1.9073486328125e-06 1.921175956726074 1.90891170501709 -4.291534423828125e-06 4.263671875 -4.291534423828125e-06 Z M 1.9073486328125e-06 4.291055679321289 C 1.9073486328125e-06 4.381106853485107 1.9073486328125e-06 4.411131381988525 1.9073486328125e-06 4.411131381988525 L 1.9073486328125e-06 4.291055679321289 Z M 8.527341842651367 4.291055679321289 L 8.527341842651367 4.58282470703125 C 8.527341842651367 4.58282470703125 8.527341842651367 4.509909152984619 8.527341842651367 4.291055679321289 Z" stroke="none" fill="#fff"/>
    </g>
    <g id="Caminho_2242-2" data-name="Caminho 2242" transform="translate(35.15 420.966)" fill="#fff">
      <path d="M 2.094575166702271 3.689155101776123 C 1.215325117111206 3.689155101776123 0.4999951720237732 2.973825216293335 0.4999951720237732 2.094575166702271 C 0.4999951720237732 1.215325117111206 1.215325117111206 0.4999951720237732 2.094575166702271 0.4999951720237732 C 2.973825216293335 0.4999951720237732 3.689155101776123 1.215325117111206 3.689155101776123 2.094575166702271 C 3.689155101776123 2.973825216293335 2.973825216293335 3.689155101776123 2.094575166702271 3.689155101776123 Z" stroke="none"/>
      <path d="M 2.094575166702271 0.999995231628418 C 1.49102520942688 0.999995231628418 0.999995231628418 1.49102520942688 0.999995231628418 2.094575166702271 C 0.999995231628418 2.698125123977661 1.49102520942688 3.189155101776123 2.094575166702271 3.189155101776123 C 2.698125123977661 3.189155101776123 3.189155101776123 2.698125123977661 3.189155101776123 2.094575166702271 C 3.189155101776123 1.49102520942688 2.698125123977661 0.999995231628418 2.094575166702271 0.999995231628418 M 2.094575166702271 -4.76837158203125e-06 C 3.251375198364258 -4.76837158203125e-06 4.189155101776123 0.9377751350402832 4.189155101776123 2.094575166702271 C 4.189155101776123 3.251375198364258 3.251375198364258 4.189155101776123 2.094575166702271 4.189155101776123 C 0.9377751350402832 4.189155101776123 -4.76837158203125e-06 3.251375198364258 -4.76837158203125e-06 2.094575166702271 C -4.76837158203125e-06 0.9377751350402832 0.9377751350402832 -4.76837158203125e-06 2.094575166702271 -4.76837158203125e-06 Z" stroke="none" fill="#fff"/>
    </g>
    <g id="Caminho_2243" data-name="Caminho 2243" transform="translate(19 432)" fill="#fff">
      <path d="M 16.48241806030273 7.500004291534424 L 0.5175821185112 7.500004291534424 C 0.7931011915206909 3.596846342086792 4.268103122711182 0.5000041723251343 8.5 0.5000041723251343 C 12.73189735412598 0.5000041723251343 16.20689964294434 3.596846342086792 16.48241806030273 7.500004291534424 Z" stroke="none"/>
      <path d="M 8.5 1.000003814697266 C 4.728215217590332 1.000003814697266 1.597776412963867 3.612198829650879 1.076300621032715 7.000004291534424 L 15.92369937896729 7.000004291534424 C 15.40222358703613 3.612198829650879 12.27178573608398 1.000003814697266 8.5 1.000003814697266 M 8.5 3.814697265625e-06 C 13.19441986083984 3.814697265625e-06 17 3.581724166870117 17 8.000003814697266 L 0 8.000003814697266 L 0 8.543951034545898 C 0 8.543951034545898 0 8.408014297485352 0 8.000003814697266 C 0 3.581724166870117 3.805580139160156 3.814697265625e-06 8.5 3.814697265625e-06 Z M 17 8.000003814697266 C 17 8.167887687683105 17 8.223861694335938 17 8.223861694335938 L 17 8.000003814697266 Z" stroke="none" fill="#047"/>
    </g>
    <g id="Caminho_2244" data-name="Caminho 2244" transform="translate(23 424)" fill="#fff">
      <path d="M 4.5 8.5 C 2.294389963150024 8.5 0.5 6.705609798431396 0.5 4.5 C 0.5 2.294389963150024 2.294389963150024 0.5 4.5 0.5 C 6.705609798431396 0.5 8.5 2.294389963150024 8.5 4.5 C 8.5 6.705609798431396 6.705609798431396 8.5 4.5 8.5 Z" stroke="none"/>
      <path d="M 4.5 1 C 2.570089817047119 1 1 2.570089817047119 1 4.5 C 1 6.429909706115723 2.570089817047119 8 4.5 8 C 6.429909706115723 8 8 6.429909706115723 8 4.5 C 8 2.570089817047119 6.429909706115723 1 4.5 1 M 4.5 0 C 6.98528003692627 0 9 2.01471996307373 9 4.5 C 9 6.98528003692627 6.98528003692627 9 4.5 9 C 2.01471996307373 9 0 6.98528003692627 0 4.5 C 0 2.01471996307373 2.01471996307373 0 4.5 0 Z" stroke="none" fill="#047"/>
    </g>
  </g>
</svg>
