<svg xmlns="http://www.w3.org/2000/svg" width="21.955" height="23" viewBox="0 0 21.955 23">
  <g id="Grupo_5890" data-name="Grupo 5890" transform="translate(-8.818 -7)">
    <g id="Grupo_4735" data-name="Grupo 4735" transform="translate(8.818 7)">
      <ellipse id="Elipse_304" data-name="Elipse 304" cx="10.978" cy="11.5" rx="10.978" ry="11.5" fill="#005b9e"/>
      <path id="precaucao" d="M0,1.308A.364.364,0,0,1,.3.972S5.534,0,6.367,0s6.085.973,6.085.973a.36.36,0,0,1,.292.334V6.381a6.939,6.939,0,0,1-3.014,5.27s-2.481,1.7-3.326,1.7S3.02,11.635,3.02,11.635A6.935,6.935,0,0,1,0,6.381V1.308ZM.708,6.381a6.213,6.213,0,0,0,2.7,4.631l.1.069q.813.536,1.663,1.006a4.41,4.41,0,0,0,1.232.522A4.21,4.21,0,0,0,7.6,12.1c.14-.075.287-.159.437-.247q.612-.359,1.2-.754l.129-.087a6.2,6.2,0,0,0,2.666-4.631V1.65q-1.4-.255-2.8-.493C7.725.9,6.647.742,6.367.742S5.013.9,3.5,1.156l-.366.063Q1.922,1.427.709,1.65V6.381Z" transform="translate(4.773 5.649)" fill="#fff"/>
    </g>
    <g id="Grupo_4741" data-name="Grupo 4741" transform="translate(14.756 14.5)">
      <g id="Grupo_4739" data-name="Grupo 4739" transform="translate(1.724 3.132)">
        <g id="Grupo_4704" data-name="Grupo 4704" transform="translate(0 0)">
          <g id="_67994" data-name="67994" transform="translate(0 0)">
            <g id="Grupo_3159" data-name="Grupo 3159" transform="translate(0)">
              <path id="Caminho_1720" data-name="Caminho 1720" d="M6.719,1.49a.168.168,0,0,0-.134-.066l-.659.005A2.317,2.317,0,0,0,5.319.382,4.589,4.589,0,0,0,1.443.413,2.426,2.426,0,0,0,.819,1.471L.16,1.477a.173.173,0,0,0-.135.068A.188.188,0,0,0-.012,1.7l.094.493a.172.172,0,0,0,.169.143l.2,0a1.275,1.275,0,0,0-.287.8,1.205,1.205,0,0,0,.355.9l.008.006-.005.692A.261.261,0,0,0,.774,5l.608,0a.272.272,0,0,0,.262-.274l0-.278,3.406-.028,0,.278a.261.261,0,0,0,.258.27l.608,0a.272.272,0,0,0,.262-.274L6.184,4a1.257,1.257,0,0,0,.377-.9,1.235,1.235,0,0,0-.288-.822l.208,0a.178.178,0,0,0,.171-.146l.1-.495A.187.187,0,0,0,6.719,1.49ZM1.725.865a4.157,4.157,0,0,1,3.3-.027,2.227,2.227,0,0,1,.44.88l-4.2.034A2.316,2.316,0,0,1,1.725.865Zm-.8,2.33a.534.534,0,0,1,.516-.539.513.513,0,0,1,.508.53.534.534,0,0,1-.516.539A.514.514,0,0,1,.929,3.194Zm4.352.5a.514.514,0,0,1-.508-.53.534.534,0,0,1,.516-.539.513.513,0,0,1,.508.53A.534.534,0,0,1,5.28,3.694Z" transform="translate(0.015 0.032)" fill="#fff"/>
            </g>
          </g>
        </g>
      </g>
      <g id="Grupo_4779" data-name="Grupo 4779" transform="translate(3.58 -0.168)">
        <line id="Linha_362" data-name="Linha 362" x2="2.938" transform="translate(0 1.469)" fill="none" stroke="#fff" stroke-width="1"/>
        <line id="Linha_363" data-name="Linha 363" y2="2.938" transform="translate(1.469 0)" fill="none" stroke="#fff" stroke-width="1"/>
      </g>
    </g>
  </g>
</svg>
