<svg xmlns="http://www.w3.org/2000/svg" width="20.631" height="20.631" viewBox="0 0 20.631 20.631">
  <path id="Caminho_509" data-name="Caminho 509" d="M10.315,0A10.315,10.315,0,1,0,20.63,10.315,10.316,10.316,0,0,0,10.315,0Zm0,18.7A8.381,8.381,0,1,1,18.7,10.315,8.381,8.381,0,0,1,10.315,18.7Zm0-14.172c-.739,0-1.3.386-1.3,1.008v5.712c0,.623.559,1.008,1.3,1.008.721,0,1.3-.4,1.3-1.008V5.532C11.614,4.924,11.037,4.524,10.316,4.524Zm0,9.015A1.287,1.287,0,1,0,11.6,14.827,1.289,1.289,0,0,0,10.316,13.539Z" transform="translate(0.001)" fill="#f3e30a"/>
</svg>
