<svg xmlns="http://www.w3.org/2000/svg" width="73.879" height="82.092" viewBox="0 0 73.879 82.092">
  <g id="Grupo_6068" data-name="Grupo 6068" transform="translate(-1416.683 -768.688)">
    <path id="Caminho_2314" data-name="Caminho 2314" d="M9.265,3V85.092L33.891,60.464H83.144V3Z" transform="translate(1407.418 765.688)" fill="#fff"/>
    <g id="Caminho_2315" data-name="Caminho 2315" transform="translate(1431.723 772.758)" fill="#fff">
      <path d="M 21.87700843811035 34.25353240966797 C 20.991455078125 34.25353240966797 20.12889099121094 34.16146469116211 19.29867744445801 33.98540115356445 L 18.19036293029785 33.47899627685547 L 30.21768569946289 18.76994895935059 L 22.56685829162598 34.23453903198242 C 22.33835601806641 34.24715805053711 22.10860824584961 34.25353240966797 21.87700843811035 34.25353240966797 Z M 33.68163299560547 25.60097885131836 L 33.65120697021484 25.23944091796875 L 32.8452033996582 16.14535903930664 C 33.74485397338867 17.85992622375488 34.25402450561523 19.80990028381348 34.25402450561523 21.87676429748535 C 34.25402450561523 23.17386627197266 34.05339050292969 24.42518997192383 33.68163299560547 25.60097885131836 Z" stroke="none"/>
      <path d="M 21.87700843811035 -1.1444091796875e-05 C 33.95935821533203 -1.1444091796875e-05 43.75400924682617 9.794563293457031 43.75400924682617 21.87676429748535 C 43.75400924682617 33.95896530151367 33.95935821533203 43.7535400390625 21.87700843811035 43.7535400390625 C 10.60428237915039 43.7535400390625 1.322933197021484 35.22761535644531 0.07761001586914063 23.73254013061523 C 0.07761001586914063 23.73254013061523 22.44196319580078 25.68227195739746 24.12677192687988 26.06218910217285 L 24.19145774841309 26.11396408081055 C 24.24077606201172 26.10587692260742 24.2381706237793 26.09379768371582 24.18828392028809 26.0781364440918 L 21.87700843811035 -1.1444091796875e-05 Z M 3.694107055664063 9.707862854003906 L 22.00470352172852 24.36368370056152 C 21.86572074890137 24.25943183898926 21.77338027954102 24.19565391540527 21.75553703308105 24.19565391540527 C 21.75344276428223 24.19565391540527 21.75238418579102 24.19652557373047 21.75238418579102 24.19831466674805 C 21.75238418579102 24.19980049133301 21.74568939208984 24.20053863525391 21.73275375366211 24.20053863525391 C 21.0020866394043 24.20053863525391 7.62939453125e-06 21.87676429748535 7.62939453125e-06 21.87676429748535 C 7.62939453125e-06 17.57551383972168 1.2413330078125 13.56418991088867 3.694107055664063 9.707862854003906 Z M 22.00470352172852 24.36368370056152 C 22.55373573303223 24.77551460266113 23.83152961730957 25.81929016113281 24.12883186340332 26.06265449523926 C 24.12818145751953 26.06250762939453 24.12742805480957 26.06233787536621 24.12677192687988 26.06218910217285 L 22.00470352172852 24.36368370056152 Z M 24.12883186340332 26.06265449523926 C 24.15306091308594 26.06815338134766 24.17291259765625 26.07331085205078 24.18828392028809 26.0781364440918 L 24.19145774841309 26.11396408081055 C 24.19145774841309 26.11396408081055 24.16913795471191 26.09564781188965 24.12883186340332 26.06265449523926 Z" stroke="none" fill="#409440"/>
    </g>
  </g>
</svg>
