<svg xmlns="http://www.w3.org/2000/svg" width="21.125" height="18.092" viewBox="0 0 21.125 18.092">
  <g id="Grupo_5776" data-name="Grupo 5776" transform="translate(-66.512 -481.119)">
    <path id="Caminho_2142" data-name="Caminho 2142" d="M9.265,3V13.285L12.351,10.2h6.171V3Z" transform="translate(69.115 478.119)" fill="#fff"/>
    <g id="_67994" data-name="67994" transform="translate(66.512 487.449)">
      <g id="Grupo_3159" data-name="Grupo 3159" transform="translate(0)">
        <path id="Caminho_1720" data-name="Caminho 1720" d="M16.525,9.347a.427.427,0,0,0-.33-.157H14.577a5.514,5.514,0,0,0-1.51-2.474c-2.045-1.345-7.469-1.345-9.513,0A5.541,5.541,0,0,0,2.043,9.19H.425A.426.426,0,0,0,.009,9.7l.24,1.161a.425.425,0,0,0,.417.339h.479a2.873,2.873,0,0,0-.69,1.878,2.813,2.813,0,0,0,.889,2.112l.019.015v1.624A.639.639,0,0,0,2,17.47H3.492a.639.639,0,0,0,.638-.638v-.653h8.358v.653a.639.639,0,0,0,.638.638H14.62a.639.639,0,0,0,.638-.638V15.239a2.919,2.919,0,0,0,.186-4.038h.511a.424.424,0,0,0,.417-.34l.24-1.16A.429.429,0,0,0,16.525,9.347ZM4.255,7.782c1.63-1.073,6.481-1.073,8.11,0a5.262,5.262,0,0,1,1.1,2.075H3.158A5.263,5.263,0,0,1,4.255,7.782ZM2.346,13.24A1.256,1.256,0,1,1,3.6,14.5,1.256,1.256,0,0,1,2.346,13.24ZM13.035,14.5a1.256,1.256,0,1,1,1.256-1.256A1.256,1.256,0,0,1,13.035,14.5Z" transform="translate(0 -5.707)" fill="#fff"/>
      </g>
    </g>
    <g id="Caminho_2145" data-name="Caminho 2145" transform="translate(81.26 482.467)" fill="#fff">
      <path d="M 2.2666015625 4.033201694488525 C 1.563349604606628 4.033201694488525 0.9642707109451294 3.631794691085815 0.6762484312057495 3.02015495300293 C 1.433653354644775 3.088510513305664 2.218357563018799 3.162886142730713 2.38339638710022 3.187448978424072 L 3.070171594619751 3.403101444244385 L 3.004111528396606 2.657761573791504 L 2.820765256881714 0.5890106558799744 C 3.52428412437439 0.8219707012176514 4.033201694488525 1.485957980155945 4.033201694488525 2.2666015625 C 4.033201694488525 3.240711450576782 3.240711450576782 4.033201694488525 2.2666015625 4.033201694488525 Z M 2.389278650283813 3.187774896621704 L 2.195194005966187 3.094426393508911 L 2.799019575119019 2.349406957626343 L 2.389278650283813 3.187774896621704 Z" stroke="none"/>
      <path d="M 2.2666015625 1.430511474609375e-06 C 3.518411636352539 1.430511474609375e-06 4.533201694488525 1.014791488647461 4.533201694488525 2.2666015625 C 4.533201694488525 3.518411636352539 3.518411636352539 4.533201694488525 2.2666015625 4.533201694488525 C 1.098671674728394 4.533201694488525 0.137061595916748 3.649851560592651 0.0080413818359375 2.458871603012085 C 0.0080413818359375 2.458871603012085 2.324868679046631 2.660858154296875 2.499687194824219 2.700245380401611 L 2.506391525268555 2.705611705780029 C 2.511501550674438 2.704773426055908 2.511230945587158 2.703521251678467 2.506062507629395 2.701898336410522 L 2.2666015625 1.430511474609375e-06 Z M 0.3827314376831055 1.005811452865601 L 2.279712438583374 2.52417516708374 C 2.265379190444946 2.513426065444946 2.255861759185791 2.506856203079224 2.254018068313599 2.506856203079224 C 2.253801107406616 2.506856203079224 2.253691673278809 2.506946325302124 2.253691673278809 2.507131576538086 C 2.253691673278809 2.507285594940186 2.252996206283569 2.507362127304077 2.251656055450439 2.507362127304077 C 2.175954103469849 2.507362127304077 1.430511474609375e-06 2.2666015625 1.430511474609375e-06 2.2666015625 C 1.430511474609375e-06 1.820961475372314 0.1286115646362305 1.405351638793945 0.3827314376831055 1.005811452865601 Z M 2.279712438583374 2.52417516708374 C 2.336524724960327 2.566780805587769 2.469062805175781 2.675049304962158 2.499900817871094 2.70029354095459 C 2.499822378158569 2.700275897979736 2.49976634979248 2.700263023376465 2.499687194824219 2.700245380401611 L 2.279712438583374 2.52417516708374 Z M 2.499900817871094 2.70029354095459 C 2.502411127090454 2.700863361358643 2.504470109939575 2.701398372650146 2.506062507629395 2.701898336410522 L 2.506391525268555 2.705611705780029 C 2.506391525268555 2.705611705780029 2.504081726074219 2.703716039657593 2.499900817871094 2.70029354095459 Z" stroke="none" fill="#005b9e"/>
    </g>
  </g>
</svg>
