<svg xmlns="http://www.w3.org/2000/svg" width="14.145" height="15.717" viewBox="0 0 14.145 15.717">
  <g id="Grupo_5775" data-name="Grupo 5775" transform="translate(-74.381 -454.688)">
    <path id="Caminho_1990" data-name="Caminho 1990" d="M9.265,3V18.717L13.98,14h9.43V3Z" transform="translate(65.115 451.688)" fill="#fff"/>
    <g id="Caminho_2146" data-name="Caminho 2146" transform="translate(77.26 455.467)" fill="#fff">
      <path d="M 4.1884765625 7.876956462860107 C 3.270306587219238 7.876956462860107 2.393636465072632 7.536196708679199 1.719966530799866 6.917436599731445 C 1.192156553268433 6.432653903961182 0.815032422542572 5.801535606384277 0.626093864440918 5.099499225616455 C 2.198163509368896 5.239040851593018 4.223225116729736 5.426921367645264 4.500916481018066 5.476084232330322 L 5.195086479187012 5.693986415863037 L 5.129036426544189 4.948716640472412 L 4.738377571105957 0.5408962965011597 C 6.512348175048828 0.8071845769882202 7.876956462860107 2.341470003128052 7.876956462860107 4.1884765625 C 7.876956462860107 6.222306728363037 6.222306728363037 7.876956462860107 4.1884765625 7.876956462860107 Z M 4.509286403656006 5.476821422576904 L 4.321492195129395 5.387194633483887 L 4.904850959777832 4.667375087738037 L 4.509286403656006 5.476821422576904 Z M 2.536475419998169 3.963204860687256 C 1.902085065841675 3.894629955291748 1.175075769424438 3.815057516098022 0.5268622636795044 3.743615388870239 C 0.573976993560791 3.359070777893066 0.6833310127258301 2.986174345016479 0.8567866086959839 2.618770599365234 L 2.536475419998169 3.963204860687256 Z" stroke="none"/>
      <path d="M 5.298697948455811 1.199352264404297 L 5.616824150085449 4.788787841796875 C 5.635844230651855 4.878626823425293 5.642678260803223 4.972295761108398 5.635906219482422 5.067746639251709 C 5.602926254272461 5.532686233520508 5.256566524505615 5.910486221313477 4.79362678527832 5.986506462097168 L 4.35426664352417 6.058646678924561 L 4.208608150482178 5.942049026489258 C 3.716045379638672 5.88528299331665 2.54554271697998 5.774659633636475 1.382760047912598 5.66935920715332 C 1.556396961212158 5.999272346496582 1.78385591506958 6.297217845916748 2.058186531066895 6.549186706542969 C 2.63935661315918 7.082986831665039 3.395906448364258 7.376956462860107 4.1884765625 7.376956462860107 C 5.946606636047363 7.376956462860107 7.376956462860107 5.946606636047363 7.376956462860107 4.1884765625 C 7.376956462860107 2.820624828338623 6.511058807373047 1.651145935058594 5.298697948455811 1.199352264404297 M 4.1884765625 -3.814697265625e-06 C 6.501706600189209 -3.814697265625e-06 8.376956939697266 1.875246524810791 8.376956939697266 4.1884765625 C 8.376956939697266 6.501706600189209 6.501706600189209 8.376956939697266 4.1884765625 8.376956939697266 C 2.030246734619141 8.376956939697266 0.2532768249511719 6.744606494903564 0.01485633850097656 4.543776512145996 C 0.01485633850097656 4.543776512145996 4.296643733978271 4.917069435119629 4.619213104248047 4.989804744720459 L 4.631596565246582 4.999716758728027 C 4.64103889465332 4.998168468475342 4.64054012298584 4.995855808258057 4.630988597869873 4.992857933044434 L 4.1884765625 -3.814697265625e-06 Z M 0.7072567939758301 1.858646392822266 L 4.213087558746338 4.664738655090332 C 4.186387062072754 4.644706726074219 4.168643474578857 4.632447242736816 4.165220260620117 4.632447242736816 C 4.164819717407227 4.632447242736816 4.164616584777832 4.632614135742188 4.164616584777832 4.632956504821777 C 4.164616584777832 4.633241176605225 4.163336753845215 4.633381843566895 4.160860538482666 4.633381843566895 C 4.020969867706299 4.633381843566895 -3.814697265625e-06 4.1884765625 -3.814697265625e-06 4.1884765625 C -3.814697265625e-06 3.36496639251709 0.2376565933227539 2.596966743469238 0.7072567939758301 1.858646392822266 Z M 4.213087558746338 4.664738655090332 C 4.318294525146484 4.743670463562012 4.562715530395508 4.943324565887451 4.619606971740723 4.989893913269043 C 4.61948299407959 4.989865303039551 4.619338512420654 4.989832878112793 4.619213104248047 4.989804744720459 L 4.213087558746338 4.664738655090332 Z M 4.619606971740723 4.989893913269043 C 4.624245643615723 4.990946769714355 4.628046035766602 4.991933822631836 4.630988597869873 4.992857933044434 L 4.631596565246582 4.999716758728027 C 4.631596565246582 4.999716758728027 4.627324104309082 4.99621057510376 4.619606971740723 4.989893913269043 Z" stroke="none" fill="#005b9e"/>
    </g>
  </g>
</svg>
