<svg xmlns="http://www.w3.org/2000/svg" width="29.029" height="29.029" viewBox="0 0 29.029 29.029">
  <path id="Caminho_509" data-name="Caminho 509" d="M14.515,0A14.515,14.515,0,1,0,29.029,14.515,14.515,14.515,0,0,0,14.515,0Zm0,26.313a11.793,11.793,0,1,1,11.8-11.8A11.793,11.793,0,0,1,14.515,26.313Zm0-19.942c-1.04,0-1.829.543-1.829,1.418v8.038c0,.877.787,1.418,1.829,1.418,1.015,0,1.829-.563,1.829-1.418V7.784c0-.856-.813-1.418-1.828-1.418Zm0,12.685a1.492,1.492,0,1,0,0-.006Z" transform="translate(0 0)" fill="#f3e30a"/>
</svg>
