<svg xmlns="http://www.w3.org/2000/svg" width="31.92" height="25.924" viewBox="0 0 31.92 25.924">
  <g id="Grupo_5355" data-name="Grupo 5355" transform="translate(-930.803 -923.537)">
    <g id="_94713" data-name="94713" transform="translate(930.802 878.561)">
      <g id="Grupo_5205" data-name="Grupo 5205" transform="translate(0 44.977)">
        <path id="Caminho_2085" data-name="Caminho 2085" d="M28.454,48H3.467A3.471,3.471,0,0,0,0,51.467v18.99a3.471,3.471,0,0,0,3.467,3.467H28.454a3.471,3.471,0,0,0,3.467-3.467V51.467A3.471,3.471,0,0,0,28.454,48Zm2.53,22.457a2.533,2.533,0,0,1-2.53,2.53H3.467a2.533,2.533,0,0,1-2.53-2.53V51.467a2.533,2.533,0,0,1,2.53-2.53H28.454a2.533,2.533,0,0,1,2.53,2.53Z" transform="translate(0 -48)" fill="#005b9e"/>
        <path id="Caminho_2086" data-name="Caminho 2086" d="M67.467,120h-2A1.47,1.47,0,0,0,64,121.468v2a1.47,1.47,0,0,0,1.468,1.468h2a1.47,1.47,0,0,0,1.468-1.468v-2A1.47,1.47,0,0,0,67.467,120ZM68,123.467c0,.293.293-.572,0-.572l-2.53,1.1a.532.532,0,0,1-.531-.531v.871c0-.293,2.237,0,2.53,0L68,122.29c.293,0-3.061,1.755-3.061,2.047Z" transform="translate(-60.002 -115.502)" fill="#ec0d24"/>
        <path id="Caminho_2087" data-name="Caminho 2087" d="M191.96,152H176.469a.468.468,0,1,0,0,.937H191.96a.468.468,0,1,0,0-.937Z" transform="translate(-165.006 -145.503)" fill="#ec0d24"/>
        <path id="Caminho_2088" data-name="Caminho 2088" d="M67.467,216h-2A1.47,1.47,0,0,0,64,217.468v2a1.47,1.47,0,0,0,1.468,1.468h2a1.47,1.47,0,0,0,1.468-1.468v-2A1.47,1.47,0,0,0,67.467,216Zm-1.41,3.467c0,.293,1.7.531,1.41.531h-2c-.293,0,2,.73,2,.437h.962c0-.293-1.781-.968-1.489-.968l1.057.968c.293,0,0-3.26,0-2.967Z" transform="translate(-60.002 -205.506)" fill="#009e00"/>
        <path id="Caminho_2089" data-name="Caminho 2089" d="M191.96,248H176.469a.469.469,0,1,0,0,.937H191.96a.469.469,0,1,0,0-.937Z" transform="translate(-165.006 -235.507)" fill="#009e00"/>
        <path id="Caminho_2090" data-name="Caminho 2090" d="M67.467,312h-2A1.47,1.47,0,0,0,64,313.468v2a1.47,1.47,0,0,0,1.468,1.468h2a1.47,1.47,0,0,0,1.468-1.468v-2A1.47,1.47,0,0,0,67.467,312ZM68,315.467c0,.293-1.363-2.888-1.656-2.888l-1.682.889c-.293,0,2.964,2.822,2.964,2.529l.257-.188c0-.293-.176.677.117.677,0,0-2.155-3.549-1.656-3.549s1.479,3.549,1.479,3.549c.293,0,.177-3.311.177-3.018Z" transform="translate(-60.002 -295.509)" fill="#f8da43"/>
        <path id="Caminho_2091" data-name="Caminho 2091" d="M191.96,344H176.469a.469.469,0,1,0,0,.937H191.96a.469.469,0,1,0,0-.937Z" transform="translate(-165.006 -325.51)" fill="#f8da43"/>
      </g>
    </g>
  </g>
</svg>
