<svg xmlns="http://www.w3.org/2000/svg" width="22.644" height="22.643" viewBox="0 0 22.644 22.643">
  <g id="Grupo_5633" data-name="Grupo 5633" transform="translate(0 0)">
    <path id="Caminho_1733" data-name="Caminho 1733" d="M11.321,0A11.322,11.322,0,1,0,22.643,11.323,11.322,11.322,0,0,0,11.321,0Z" transform="translate(0 -0.001)" fill="#bebebe"/>
    <g id="Grupo_4832" data-name="Grupo 4832" transform="translate(-1827.219 -491.486)">
      <path id="Subtração_3" data-name="Subtração 3" d="M18215-16161h-9a2,2,0,0,1-2-2V-16177a2,2,0,0,1,2-2h9a2,2,0,0,1,2,2V-16163A2,2,0,0,1,18215-16161Zm-4.086-5.587h0l1.781,2.725,2.779-4.159-.02.015-.055.044c-.043.034-.105.082-.18.142-.6.478-2.494,1.982-2.525,1.984,0-.017-.465-.219-1.754-.741Zm-2.914.585a1,1,0,0,0-1,1,1,1,0,0,0,1,1,1,1,0,0,0,1-1A1,1,0,0,0,18208-16166Zm2.916-5.59h0l1.779,2.732,2.781-4.16-.018.013c-.012.011-.035.028-.064.052l-.143.114c-1.723,1.366-2.535,2-2.557,2,0-.018-.549-.253-1.76-.74Zm-2.916.589a1,1,0,0,0-1,1,1,1,0,0,0,1,1,1,1,0,0,0,1-1A1,1,0,0,0,18208-16171Zm2.914-5.586,1.781,2.724,2.779-4.158a.718.718,0,0,1-.061.051l-.088.07-.074.06-.176.139c-.764.605-2.352,1.864-2.381,1.868,0-.021-.576-.264-1.754-.74l-.027-.013Zm-2.914.589a1,1,0,0,0-1,1,1,1,0,0,0,1,1,1,1,0,0,0,1-1A1,1,0,0,0,18208-16176Z" transform="translate(-16372.002 16673)" fill="#fff"/>
    </g>
  </g>
</svg>
