<svg id="Layer_1" data-name="Layer 1" xmlns="http://www.w3.org/2000/svg" viewBox="0 0 453.54 200.08"><defs><style>.cls-1{fill:#fff;}</style></defs><title>01_Unidas_original_certa</title><path class="cls-1" d="M102,158.81a52.2,52.2,0,1,1,52.2-52.2A52.25,52.25,0,0,1,102,158.81Zm0-79.11a26.91,26.91,0,1,0,26.91,26.91A26.94,26.94,0,0,0,102,79.7Z"/><path class="cls-1" d="M175.2,85.86h8.45a2.62,2.62,0,0,1,2.63,2.62v24.06a8.83,8.83,0,0,0,2.3,6.52,8.08,8.08,0,0,0,6,2.31,10.1,10.1,0,0,0,4.23-.9,9.81,9.81,0,0,0,3.38-2.49,12,12,0,0,0,2.21-3.71,12.8,12.8,0,0,0,.79-4.55V85.86h11.09v44.06h-8.13a2.63,2.63,0,0,1-2.63-2.48l-.14-2.5a22.11,22.11,0,0,1-2.06,2,17.84,17.84,0,0,1-2.82,1.92,15.88,15.88,0,0,1-3.67,1.46,17.69,17.69,0,0,1-4.69.56q-8.28,0-12.59-4.93t-4.32-13.29Z"/><path class="cls-1" d="M220,85.86h8.14a2.62,2.62,0,0,1,2.62,2.47l.14,2.5a25.59,25.59,0,0,1,2-2,14.78,14.78,0,0,1,2.82-1.92,17.08,17.08,0,0,1,3.71-1.46,17.71,17.71,0,0,1,4.7-.56q8.27,0,12.58,4.93T261,103.14v26.78h-8.46a2.63,2.63,0,0,1-2.63-2.63V103.24a8.84,8.84,0,0,0-2.3-6.53,8.06,8.06,0,0,0-6-2.31,10,10,0,0,0-4.22.9A9.75,9.75,0,0,0,234,97.79a11.77,11.77,0,0,0-2.2,3.71,12.62,12.62,0,0,0-.8,4.55v23.87h-8.46a2.63,2.63,0,0,1-2.63-2.63Z"/><path class="cls-1" d="M264,85.86h8.46a2.62,2.62,0,0,1,2.62,2.62v41.44h-8.46a2.62,2.62,0,0,1-2.62-2.63Z"/><path class="cls-1" d="M310,125.59a22.27,22.27,0,0,1-2.07,2,15.39,15.39,0,0,1-2.86,1.88,19.32,19.32,0,0,1-3.67,1.4,16.76,16.76,0,0,1-4.55.57,17.66,17.66,0,0,1-7.05-1.5,18.64,18.64,0,0,1-6.2-4.42,22.56,22.56,0,0,1-4.42-7.14,26,26,0,0,1-1.69-9.68A24.93,24.93,0,0,1,279,99.62,23.52,23.52,0,0,1,282.78,93a19.2,19.2,0,0,1,4.14-3.76,28.73,28.73,0,0,1,4.55-2.49,22.07,22.07,0,0,1,4.47-1.41,20,20,0,0,1,3.75-.42,35.24,35.24,0,0,1,3.57.14,25.26,25.26,0,0,1,2.54.37,12.92,12.92,0,0,1,2.07.61c.62.25,1.34.54,2.16.85V67.25h8.36A2.63,2.63,0,0,1,321,69.88v60h-8.25a2.63,2.63,0,0,1-2.62-2.46Zm0-28.74A9.11,9.11,0,0,0,306.32,95a23,23,0,0,0-5.4-.52,10.57,10.57,0,0,0-5.45,1.27,12.94,12.94,0,0,0-3.76,3.33,14.72,14.72,0,0,0-2.21,4.37,17,17,0,0,0-.8,5.21,15.23,15.23,0,0,0,2.82,9.4,9.6,9.6,0,0,0,8.17,3.76,9.9,9.9,0,0,0,4.8-1.08,9.57,9.57,0,0,0,3.19-2.78,11.47,11.47,0,0,0,1.78-3.71,14.27,14.27,0,0,0,.57-3.9Z"/><path class="cls-1" d="M352.89,125.78a15.25,15.25,0,0,1-5.45,3.85,19.28,19.28,0,0,1-8.18,1.69,18,18,0,0,1-5.4-.84A15.17,15.17,0,0,1,329,127.9a12.77,12.77,0,0,1-3.57-4.47A14.06,14.06,0,0,1,324,117a15.4,15.4,0,0,1,1.41-6.71,14,14,0,0,1,3.95-5,17.36,17.36,0,0,1,6.11-3,28.27,28.27,0,0,1,7.89-1c.87,0,1.84,0,2.91,0s2.1.08,3.1.14l3.48.19v-1a6,6,0,0,0-2.64-5.16,11.52,11.52,0,0,0-6.85-1.88,19.28,19.28,0,0,0-7.52,1.22c-1,.45-2,.92-2.93,1.42a2.63,2.63,0,0,1-3.43-.84l-3.69-5.46c.88-.63,1.88-1.27,3-1.93a23.42,23.42,0,0,1,3.94-1.79A32,32,0,0,1,338,84.87a41,41,0,0,1,6.9-.52,23.37,23.37,0,0,1,7.66,1.18,17.71,17.71,0,0,1,5.87,3.28,14.31,14.31,0,0,1,3.76,5.08,15.76,15.76,0,0,1,1.31,6.43v29.6h-7.88a2.63,2.63,0,0,1-2.62-2.45Zm0-15.78-3.29-.19c-.88-.06-1.8-.11-2.77-.14s-1.81,0-2.49,0q-5.35,0-7.52,2.12a6.59,6.59,0,0,0-2.16,4.84,5.3,5.3,0,0,0,2,4.41c1.35,1.07,3.33,1.6,6,1.6a11.41,11.41,0,0,0,7-2.45,9.44,9.44,0,0,0,2.3-2.63,6.09,6.09,0,0,0,.9-3.19Z"/><path class="cls-1" d="M371,119.17a2.6,2.6,0,0,1,3.42-.38,18.53,18.53,0,0,0,3.49,2,18.11,18.11,0,0,0,7.19,1.36,14.51,14.51,0,0,0,5.73-.94,3.2,3.2,0,0,0,2.16-3.1,3.44,3.44,0,0,0-2-3.29,17.93,17.93,0,0,0-3.38-1.5,57.33,57.33,0,0,0-5.83-1.6,42.09,42.09,0,0,1-4.69-1.5,17.82,17.82,0,0,1-4.56-2.59,14,14,0,0,1-3.48-3.94,10.71,10.71,0,0,1-1.36-5.5,10.89,10.89,0,0,1,1.6-5.87A14.11,14.11,0,0,1,373.47,88a20.68,20.68,0,0,1,5.82-2.68,23.59,23.59,0,0,1,6.53-.94,35.05,35.05,0,0,1,9.91,1.22,23.63,23.63,0,0,1,7.38,3.67l-4.3,5.85a2.62,2.62,0,0,1-3.31.79,23.53,23.53,0,0,0-2.82-1.24,19.72,19.72,0,0,0-6.86-1.08q-3.94,0-5.49,1.17a3.49,3.49,0,0,0-1.55,2.87q0,2.07,2.58,3.24a48.83,48.83,0,0,0,8,2.49,35.22,35.22,0,0,1,6.06,1.88,16.53,16.53,0,0,1,4.6,2.82,11.47,11.47,0,0,1,3,4,13.31,13.31,0,0,1,1,5.49,11.21,11.21,0,0,1-1.51,5.78,13.48,13.48,0,0,1-4.08,4.37,20.63,20.63,0,0,1-6,2.77,26.2,26.2,0,0,1-7.29,1A33.66,33.66,0,0,1,374,129.68a18.6,18.6,0,0,1-8-5.12Z"/><circle class="cls-1" cx="269.54" cy="73.2" r="5.95"/></svg>