<svg xmlns="http://www.w3.org/2000/svg" width="15" height="19" viewBox="0 0 15 19">
  <g id="Grupo_5899" data-name="Grupo 5899" transform="translate(-44 -692)">
    <g id="Retângulo_2631" data-name="Retângulo 2631" transform="translate(44 692)" fill="none" stroke="#005b9e" stroke-width="1">
      <rect width="15" height="19" rx="3" stroke="none"/>
      <rect x="0.5" y="0.5" width="14" height="18" rx="2.5" fill="none"/>
    </g>
    <path id="Caminho_2271" data-name="Caminho 2271" d="M5.1,0a4.953,4.953,0,0,1,5.1,4.8H0A4.953,4.953,0,0,1,5.1,0Z" transform="translate(46.492 701.748)" fill="#005b9e"/>
    <g id="Caminho_2272" data-name="Caminho 2272" transform="translate(47.999 695.142)" fill="#005b9e">
      <path d="M 3.373448848724365 6.246898174285889 C 1.789018869400024 6.246898174285889 0.4999988377094269 4.957878112792969 0.4999988377094269 3.373448133468628 C 0.4999988377094269 1.789018154144287 1.789018869400024 0.4999981224536896 3.373448848724365 0.4999981224536896 C 4.957879066467285 0.4999981224536896 6.246898651123047 1.789018154144287 6.246898651123047 3.373448133468628 C 6.246898651123047 4.957878112792969 4.957879066467285 6.246898174285889 3.373448848724365 6.246898174285889 Z" stroke="none"/>
      <path d="M 3.373448848724365 0.9999980926513672 C 2.064728736877441 0.9999980926513672 0.9999990463256836 2.064728260040283 0.9999990463256836 3.373448133468628 C 0.9999990463256836 4.682168006896973 2.064728736877441 5.746898174285889 3.373448848724365 5.746898174285889 C 4.682168960571289 5.746898174285889 5.746898651123047 4.682168006896973 5.746898651123047 3.373448133468628 C 5.746898651123047 2.064728260040283 4.682168960571289 0.9999980926513672 3.373448848724365 0.9999980926513672 M 3.373448848724365 -1.9073486328125e-06 C 5.236548900604248 -1.9073486328125e-06 6.746898651123047 1.510348320007324 6.746898651123047 3.373448133468628 C 6.746898651123047 5.23654842376709 5.236548900604248 6.746898174285889 3.373448848724365 6.746898174285889 C 1.510348796844482 6.746898174285889 -9.5367431640625e-07 5.23654842376709 -9.5367431640625e-07 3.373448133468628 C -9.5367431640625e-07 1.510348320007324 1.510348796844482 -1.9073486328125e-06 3.373448848724365 -1.9073486328125e-06 Z" stroke="none" fill="#047"/>
    </g>
  </g>
</svg>
