<svg xmlns="http://www.w3.org/2000/svg" width="30" height="30" viewBox="0 0 30 30">
  <g id="Grupo_5171" data-name="Grupo 5171" transform="translate(-297.87 -792.412)">
    <circle id="Elipse_318" data-name="Elipse 318" cx="15" cy="15" r="15" transform="translate(297.87 792.412)" fill="#005b9e"/>
    <path id="Caminho_1826" data-name="Caminho 1826" d="M17.766,7.883h-.983V5.916a4.916,4.916,0,1,0-9.833,0V7.883H5.967A1.972,1.972,0,0,0,4,9.849v9.833a1.972,1.972,0,0,0,1.967,1.967h11.8a1.972,1.972,0,0,0,1.967-1.967V9.849A1.972,1.972,0,0,0,17.766,7.883ZM8.818,5.916a3.048,3.048,0,1,1,6.1,0V7.883h-6.1ZM15.8,15.749h-2.95V18.7H10.883v-2.95H7.933V13.783h2.95v-2.95h1.967v2.95H15.8Z" transform="translate(300.87 795.23)" fill="#fff"/>
  </g>
</svg>
