<svg xmlns="http://www.w3.org/2000/svg" width="87" height="61" viewBox="0 0 87 61">
  <g id="Grupo_5152" data-name="Grupo 5152" transform="translate(-278 -358)">
    <circle id="Elipse_316" data-name="Elipse 316" cx="30.5" cy="30.5" r="30.5" transform="translate(278 358)" fill="#047"/>
    <g id="Grupo_4999" data-name="Grupo 4999" transform="translate(287 370.617)">
      <g id="_67994" data-name="67994" transform="translate(4.9 4.644)">
        <g id="Grupo_3159" data-name="Grupo 3159" transform="translate(0)">
          <path id="Caminho_1720" data-name="Caminho 1720" d="M32.241,12.809A.834.834,0,0,0,31.6,12.5H28.442c-.779-2.054-1.793-4.067-2.947-4.826-3.99-2.625-14.572-2.625-18.561,0C5.78,8.436,4.769,10.451,3.986,12.5H.83a.831.831,0,0,0-.813,1l.467,2.265a.83.83,0,0,0,.813.662h.935A5.606,5.606,0,0,0,.887,20.092a5.489,5.489,0,0,0,1.734,4.122c.012.011.025.018.037.029v3.169A1.246,1.246,0,0,0,3.9,28.657H6.814A1.246,1.246,0,0,0,8.06,27.412V26.138H24.367v1.274a1.246,1.246,0,0,0,1.245,1.245h2.911a1.247,1.247,0,0,0,1.245-1.245V24.3a5.7,5.7,0,0,0,.364-7.879h1a.827.827,0,0,0,.813-.663l.468-2.264A.837.837,0,0,0,32.241,12.809ZM8.3,9.756c3.18-2.093,12.644-2.093,15.823,0,.618.405,1.412,2.043,2.14,4.049H6.162C6.889,11.8,7.683,10.162,8.3,9.756ZM4.577,20.4a2.45,2.45,0,1,1,2.45,2.45A2.45,2.45,0,0,1,4.577,20.4Zm20.856,2.45a2.45,2.45,0,1,1,2.45-2.45A2.45,2.45,0,0,1,25.433,22.854Z" transform="translate(0 -5.707)" fill="#fff"/>
        </g>
      </g>
    </g>
    <g id="Retângulo_2403" data-name="Retângulo 2403" transform="translate(307 400)" fill="#fff" stroke="#047" stroke-width="1">
      <rect width="58" height="15" rx="4" stroke="none"/>
      <rect x="0.5" y="0.5" width="57" height="14" rx="3.5" fill="none"/>
    </g>
    <text id="MISTO" transform="translate(321 411)" fill="#047" font-size="10" font-family="Poppins-SemiBold, Poppins" font-weight="600"><tspan x="0" y="0">MISTO</tspan></text>
  </g>
</svg>
