<svg xmlns="http://www.w3.org/2000/svg" width="21.955" height="23" viewBox="0 0 21.955 23">
  <g id="Grupo_5602" data-name="Grupo 5602" transform="translate(-329.772 -749)">
    <ellipse id="Elipse_304" data-name="Elipse 304" cx="10.978" cy="11.5" rx="10.978" ry="11.5" transform="translate(329.772 749)" fill="#005b9e"/>
    <g id="Grupo_5318" data-name="Grupo 5318" transform="translate(333.721 754.505)">
      <g id="_67994" data-name="67994" transform="translate(0)">
        <g id="Grupo_3159" data-name="Grupo 3159">
          <path id="Caminho_1720" data-name="Caminho 1720" d="M13.4,8.659a.347.347,0,0,0-.267-.127H11.822A4.472,4.472,0,0,0,10.6,6.525c-1.658-1.091-6.057-1.091-7.715,0A4.494,4.494,0,0,0,1.657,8.532H.345a.345.345,0,0,0-.338.415L.2,9.888a.345.345,0,0,0,.338.275H.928a2.33,2.33,0,0,0-.559,1.523A2.281,2.281,0,0,0,1.089,13.4l.015.012v1.317a.518.518,0,0,0,.518.518h1.21a.518.518,0,0,0,.518-.518V14.2h6.778v.529a.518.518,0,0,0,.518.518h1.21a.519.519,0,0,0,.518-.518V13.437a2.368,2.368,0,0,0,.151-3.275h.414a.344.344,0,0,0,.338-.275l.195-.941A.348.348,0,0,0,13.4,8.659ZM3.45,7.39c1.322-.87,5.256-.87,6.577,0a4.267,4.267,0,0,1,.89,1.683H2.561A4.268,4.268,0,0,1,3.45,7.39ZM1.9,11.816a1.018,1.018,0,1,1,1.018,1.018A1.018,1.018,0,0,1,1.9,11.816Zm8.669,1.018a1.018,1.018,0,1,1,1.018-1.018A1.019,1.019,0,0,1,10.571,12.834Z" transform="translate(0 -5.707)" fill="#fff"/>
        </g>
      </g>
    </g>
  </g>
</svg>
