<svg width="73" height="71" viewBox="0 0 73 71" fill="none" xmlns="http://www.w3.org/2000/svg">
<path fill-rule="evenodd" clip-rule="evenodd" d="M11.4744 5.55768C13.1388 3.89329 15.3962 2.95825 17.75 2.95825H41.4167C42.2013 2.95825 42.9537 3.26993 43.5085 3.82473L61.2585 21.5747C61.8133 22.1295 62.125 22.882 62.125 23.6666V59.1666C62.125 61.5204 61.19 63.7778 59.5256 65.4422C57.8612 67.1065 55.6038 68.0416 53.25 68.0416H17.75C15.3962 68.0416 13.1388 67.1065 11.4744 65.4422C9.81004 63.7778 8.875 61.5204 8.875 59.1666V11.8333C8.875 9.47946 9.81004 7.22206 11.4744 5.55768ZM17.75 8.87492C16.9654 8.87492 16.2129 9.1866 15.6581 9.74139C15.1033 10.2962 14.7917 11.0487 14.7917 11.8333V59.1666C14.7917 59.9512 15.1033 60.7036 15.6581 61.2584C16.2129 61.8132 16.9654 62.1249 17.75 62.1249H53.25C54.0346 62.1249 54.7871 61.8132 55.3419 61.2584C55.8967 60.7036 56.2083 59.9512 56.2083 59.1666V24.892L40.1913 8.87492H17.75Z" fill="#005B9E"/>
<path fill-rule="evenodd" clip-rule="evenodd" d="M41.4167 2.95825C43.0505 2.95825 44.375 4.28274 44.375 5.91658V20.7083H59.1667C60.8005 20.7083 62.125 22.0327 62.125 23.6666C62.125 25.3004 60.8005 26.6249 59.1667 26.6249H41.4167C39.7828 26.6249 38.4583 25.3004 38.4583 23.6666V5.91658C38.4583 4.28274 39.7828 2.95825 41.4167 2.95825Z" fill="#005B9E"/>
<path fill-rule="evenodd" clip-rule="evenodd" d="M20.7083 38.4582C20.7083 36.8244 22.0328 35.4999 23.6667 35.4999H47.3333C48.9672 35.4999 50.2917 36.8244 50.2917 38.4582C50.2917 40.0921 48.9672 41.4166 47.3333 41.4166H23.6667C22.0328 41.4166 20.7083 40.0921 20.7083 38.4582Z" fill="#005B9E"/>
<path fill-rule="evenodd" clip-rule="evenodd" d="M20.7083 50.2916C20.7083 48.6577 22.0328 47.3332 23.6667 47.3332H47.3333C48.9672 47.3332 50.2917 48.6577 50.2917 50.2916C50.2917 51.9254 48.9672 53.2499 47.3333 53.2499H23.6667C22.0328 53.2499 20.7083 51.9254 20.7083 50.2916Z" fill="#005B9E"/>
<path fill-rule="evenodd" clip-rule="evenodd" d="M20.7083 26.6249C20.7083 24.9911 22.0328 23.6666 23.6667 23.6666H29.5833C31.2172 23.6666 32.5417 24.9911 32.5417 26.6249C32.5417 28.2588 31.2172 29.5832 29.5833 29.5832H23.6667C22.0328 29.5832 20.7083 28.2588 20.7083 26.6249Z" fill="#005B9E"/>
<circle cx="57" cy="55" r="15" fill="white"/>
<path fill-rule="evenodd" clip-rule="evenodd" d="M61.8842 44.0312C59.5205 42.978 56.8797 42.7171 54.3556 43.2874C51.8315 43.8577 49.5594 45.2286 47.8781 47.1957C46.1968 49.1628 45.1964 51.6207 45.0262 54.2028C44.8559 56.7849 45.5249 59.3529 46.9333 61.5237C48.3417 63.6945 50.4142 65.3519 52.8415 66.2487C55.2689 67.1455 57.9211 67.2336 60.4026 66.4999C62.8841 65.7662 65.062 64.25 66.6114 62.1774C68.1608 60.1048 68.9987 57.5869 69.0002 54.9992V53.7733C69.0002 53.0369 69.5971 52.44 70.3335 52.44C71.0699 52.44 71.6668 53.0369 71.6668 53.7733V55C71.665 58.1627 70.6409 61.2409 68.7472 63.7741C66.8535 66.3072 64.1916 68.1604 61.1587 69.0571C58.1257 69.9539 54.8841 69.8462 51.9174 68.7501C48.9506 67.6541 46.4177 65.6284 44.6962 62.9751C42.9748 60.3219 42.1572 57.1832 42.3653 54.0273C42.5734 50.8714 43.7961 47.8674 45.851 45.4631C47.9059 43.0589 50.6829 41.3833 53.7679 40.6863C56.8529 39.9893 60.0806 40.3082 62.9695 41.5954C63.6421 41.8951 63.9444 42.6834 63.6447 43.356C63.345 44.0286 62.5568 44.3309 61.8842 44.0312Z" fill="#005B9E"/>
<path fill-rule="evenodd" clip-rule="evenodd" d="M71.276 43.3901C71.797 43.9105 71.7974 44.7547 71.2769 45.2757L57.9436 58.6223C57.6936 58.8726 57.3544 59.0132 57.0007 59.0133C56.6469 59.0134 56.3076 58.8729 56.0575 58.6228L52.0575 54.6228C51.5368 54.1021 51.5368 53.2579 52.0575 52.7372C52.5782 52.2165 53.4224 52.2165 53.9431 52.7372L56.9999 55.7939L69.3904 43.391C69.9108 42.87 70.755 42.8696 71.276 43.3901Z" fill="#005B9E"/>
</svg>
