<svg xmlns="http://www.w3.org/2000/svg" width="15" height="19" viewBox="0 0 15 19">
  <g id="Grupo_5901" data-name="Grupo 5901" transform="translate(-44 -753)">
    <g id="Grupo_5902" data-name="Grupo 5902">
      <g id="Grupo_5903" data-name="Grupo 5903">
        <rect id="Retângulo_2633" data-name="Retângulo 2633" width="15" height="19" rx="3" transform="translate(44 753)" fill="none"/>
        <path id="Caminho_2275" data-name="Caminho 2275" d="M11.813,9.728a.907.907,0,0,0-.45-.672L8.447,7.378a.915.915,0,0,0-1.1.146L6.771,8.1a.421.421,0,0,1-.562.031A16.6,16.6,0,0,1,4.883,6.937,16.607,16.607,0,0,1,3.692,5.612a.421.421,0,0,1,.031-.562L4.3,4.475a.915.915,0,0,0,.146-1.1L2.764.457A.914.914,0,0,0,1.326.267l-.865.865c-.6.6-.614,1.709-.027,3.111A13.741,13.741,0,0,0,3.4,8.424a13.741,13.741,0,0,0,4.18,2.963,4.874,4.874,0,0,0,1.83.433,1.746,1.746,0,0,0,1.281-.46l.865-.865A.907.907,0,0,0,11.813,9.728Zm-4.2-1.575,1.03.588,2.788,1.592c.144.083-.022-.719,0-.554a.526.526,0,0,1-.1.385L8.964,8.153H7.849C8.019,7.984,7.409,8.034,7.616,8.153ZM2.092.761c.165.022-.083-.144,0,0h0c1.583,3.849,1.8,3,1.631,3.173h0l.45.542L2.147.906l.408.679c.024,0-.486-.827-.463-.823Zm8.325,10.328c-.48.48-1.461.46-2.693-.055A13.354,13.354,0,0,1,3.668,8.153,13.354,13.354,0,0,1,.787,4.1C.272,2.865.252,1.884.732,1.4L1.374.761,3.6,4.63l-.149.149a.8.8,0,0,0-.059,1.073A16.989,16.989,0,0,0,4.613,7.208,17,17,0,0,0,5.968,8.427a.8.8,0,0,0,1.073-.059l.136-.136,3.881,2.215-.642.642Z" transform="translate(45.999 756.148)" fill="#fff"/>
      </g>
    </g>
  </g>
</svg>
