<svg xmlns="http://www.w3.org/2000/svg" width="19" height="18" viewBox="0 0 19 18">
  <g id="Grupo_5892" data-name="Grupo 5892" transform="translate(-47 -243)">
    <path id="Exclus찾o_3" data-name="Exclus찾o 3" d="M10246-12140.282V-12156h14.146v11h-9.43l-4.715,4.716Zm.745-7.1v1.455h7.346a5.052,5.052,0,0,0,3.683-1.273,3.451,3.451,0,0,0,.906-2.622c-.094-2.781-2.737-3.409-4.3-3.536v-1.76l-4.934,2.584,4.934,2.581v-1.729a2.077,2.077,0,0,1,2.352,1.992,2.1,2.1,0,0,1-.519,1.6,2.872,2.872,0,0,1-2,.711c-.09,0-.15,0-.172,0s-2.088.006-4.123.006C10247.8-12147.373,10246.769-12147.375,10246.744-12147.379Z" transform="translate(-10196.62 12400.688)" fill="#fff"/>
    <rect id="Ret창ngulo_2628" data-name="Ret창ngulo 2628" width="19" height="18" transform="translate(47 243)" fill="none"/>
  </g>
</svg>
