<svg xmlns="http://www.w3.org/2000/svg" width="30.922" height="30.922" viewBox="0 0 30.922 30.922">
  <g id="Grupo_5509" data-name="Grupo 5509" transform="translate(-1711 -433)">
    <g id="Elipse_288" data-name="Elipse 288" transform="translate(1711 433)" fill="#009e00" stroke="#009e00" stroke-width="1">
      <circle cx="15.461" cy="15.461" r="15.461" stroke="none"/>
      <circle cx="15.461" cy="15.461" r="14.961" fill="none"/>
    </g>
    <path id="Caminho_1966" data-name="Caminho 1966" d="M14.2,3H4.6A1.6,1.6,0,0,0,3,4.6V15.8a1.6,1.6,0,0,0,1.6,1.6H15.8a1.6,1.6,0,0,0,1.6-1.6V6.2Zm-4,12.8a2.4,2.4,0,1,1,2.4-2.4A2.4,2.4,0,0,1,10.2,15.8Zm2.4-8h-8V4.6h8Z" transform="translate(1716.797 437.73)" fill="#fff"/>
  </g>
</svg>
