<svg id="_18229" data-name="18229" xmlns="http://www.w3.org/2000/svg">
  <path id="Caminho_1697" data-name="Caminho 1697" d="M87.421,252.558a1.742,1.742,0,0,0-.445,1.073v4.521H89.6v-7.146c0-.347-.2-.43-.445-.184Z" transform="translate(-81.142 -236.492)" fill="#000"/>
  <path id="Caminho_1698" data-name="Caminho 1698" d="M236.45,197.161a1.746,1.746,0,0,0-.445,1.074v8.805h2.625V195.607c0-.347-.2-.43-.445-.184Z" transform="translate(-220.174 -185.379)" fill="#000"/>
  <path id="Caminho_1699" data-name="Caminho 1699" d="M286.108,149.691a1.74,1.74,0,0,0-.445,1.073v12.654H288.1v-15.09c0-.347-.2-.43-.445-.184Z" transform="translate(-267.132 -141.756)" fill="#000"/>
  <path id="Caminho_1700" data-name="Caminho 1700" d="M186.846,246.805l-.262.262a1.488,1.488,0,0,0-.261.891v4.96h2.625v-7.585c0-.347-.2-.43-.445-.184Z" transform="translate(-173.826 -231.258)" fill="#000"/>
  <path id="Caminho_1701" data-name="Caminho 1701" d="M137.1,249.314c-.246-.245-.445-.163-.445.184v7.263h2.625v-4.644a1.691,1.691,0,0,0-.422-1.049l-.422-.42Z" transform="translate(-127.484 -235.101)" fill="#000"/>
  <path id="Caminho_1702" data-name="Caminho 1702" d="M34.619,301.722l-.848.849a1.585,1.585,0,0,0-.444.943v.5h2.93v-3.3c0-.347-.2-.43-.445-.184Z" transform="translate(-30.749 -282.351)" fill="#000"/>
  <path id="Caminho_1703" data-name="Caminho 1703" d="M24.366,25.03c.216.2.391.132.391-.15v-7.3a1.094,1.094,0,0,0-1.1-.981H15.8c-.305,0-.378.162-.162.362l2.795,2.585-1.14,1.049L12,25.482,9.206,22.9a.585.585,0,0,0-.782,0L.648,30.09a1.938,1.938,0,0,0,0,2.892l.054.051a2.341,2.341,0,0,0,3.128,0l4.984-4.609,2.8,2.582a.587.587,0,0,0,.783,0l9.218-8.522Z" transform="translate(0 -16.594)" fill="#000"/>
</svg>
