<svg xmlns="http://www.w3.org/2000/svg" width="33.359" height="29.511" viewBox="0 0 33.359 29.511"><defs><style>.a{fill:#464343;}</style></defs><g transform="translate(0 0)"><path class="a" d="M32.707-6.45H31.584a.771.771,0,0,0-.652.85.771.771,0,0,0,.652.85h.471V1.915H8.4V-4.749H26.38a.771.771,0,0,0,.652-.85.771.771,0,0,0-.652-.85H7.748A.771.771,0,0,0,7.1-5.6V8.341H.652A.771.771,0,0,0,0,9.192V22.207a.772.772,0,0,0,.652.85H32.707a.772.772,0,0,0,.652-.85V-5.6a.771.771,0,0,0-.652-.85ZM15.017,10.042v.833H8.492a.771.771,0,0,0-.652.85.771.771,0,0,0,.652.85h6.515v1.338H1.3V12.575H3.268a.771.771,0,0,0,.652-.85.771.771,0,0,0-.652-.85H1.3v-.833ZM1.3,15.614H15.017v5.742H1.3Zm30.75,5.742H16.322V17.5h3.187a.771.771,0,0,0,.652-.85.771.771,0,0,0-.652-.85H16.322V13.675H19.5a.771.771,0,0,0,.652-.85.771.771,0,0,0-.652-.85H16.322V10.042H19.5a.771.771,0,0,0,.652-.85.771.771,0,0,0-.652-.85H8.4V3.615H32.054Zm0,0" transform="translate(0 6.453)"/><path class="a" d="M171.828,36.076a2.185,2.185,0,1,0,2.185-2.185A2.188,2.188,0,0,0,171.828,36.076Zm2.749,0a.563.563,0,1,1-.564-.564A.564.564,0,0,1,174.577,36.076Zm0,0" transform="translate(-163.128 -31.273)"/><path class="a" d="M245.488,36.076a2.185,2.185,0,1,0,2.186-2.185A2.188,2.188,0,0,0,245.488,36.076Zm2.749,0a.564.564,0,1,1-.563-.564A.564.564,0,0,1,248.237,36.076Zm0,0" transform="translate(-233.059 -31.273)"/><path class="a" d="M319.156,36.076a2.185,2.185,0,1,0,2.185-2.185A2.188,2.188,0,0,0,319.156,36.076Zm2.749,0a.563.563,0,1,1-.563-.564A.564.564,0,0,1,321.9,36.076Zm0,0" transform="translate(-302.997 -31.273)"/><path class="a" d="M544.143-4.871a.809.809,0,0,0,.186-.022l.028-.007a.811.811,0,0,0,.6-.975.811.811,0,0,0-.975-.6l-.028.006a.811.811,0,0,0-.6.975.811.811,0,0,0,.789.625Zm0,0" transform="translate(-516.238 6.499)"/><path class="a" d="M141.51,331.184h-7.753a.811.811,0,0,0-.811.811v2.379a.811.811,0,0,0,.811.811h7.753a.811.811,0,0,0,.811-.811V332A.811.811,0,0,0,141.51,331.184Zm-.811,2.38h-6.131v-.757H140.7Zm0,0" transform="translate(-126.508 -307.935)"/><path class="a" d="M40.441,331.184H36.819a.811.811,0,0,0,0,1.622h3.622a.811.811,0,1,0,0-1.622Zm0,0" transform="translate(-33.674 -308.174)"/><path class="a" d="M40.441,368.98H36.819a.811.811,0,0,0,0,1.622h3.622a.811.811,0,1,0,0-1.622Zm0,0" transform="translate(-33.674 -343.282)"/><path class="a" d="M423.1,172.149h9.488a.811.811,0,0,0,.811-.811v-8.5a.811.811,0,0,0-.811-.811H423.1a.811.811,0,0,0-.811.811v8.5A.811.811,0,0,0,423.1,172.149Zm.811-8.5h7.866v6.881h-7.866Zm0,0" transform="translate(-403.036 -150.275)"/><path class="a" d="M206.623,163.646h10.094a.811.811,0,1,0,0-1.622H206.623a.811.811,0,0,0,0,1.622Zm0,0" transform="translate(-196.112 -150.54)"/><path class="a" d="M433.2,342.035h-9.445a.811.811,0,1,0,0,1.622H433.2a.811.811,0,0,0,0-1.622Zm0,0" transform="translate(-403.653 -318.083)"/><path class="a" d="M101.455,250.088a.8.8,0,0,0,.186-.022l.028-.006a.811.811,0,1,0-.371-1.579l-.028.007a.811.811,0,0,0,.185,1.6Zm0,0" transform="translate(-94.122 -231.086)"/></g></svg>