<svg id="_1235447" data-name="1235447" xmlns="http://www.w3.org/2000/svg">
  <path id="Caminho_1683" data-name="Caminho 1683" d="M26.3-6.45h-.9a.62.62,0,0,0-.524.683.62.62,0,0,0,.524.684h.378V.275H6.753V-5.082H21.208a.62.62,0,0,0,.524-.684.62.62,0,0,0-.524-.683H6.229a.62.62,0,0,0-.524.683V5.442H.525A.62.62,0,0,0,0,6.125V16.589a.62.62,0,0,0,.524.684H26.3a.62.62,0,0,0,.524-.684V-5.766A.62.62,0,0,0,26.3-6.45ZM12.073,6.809v.669H6.827a.62.62,0,0,0-.524.683.62.62,0,0,0,.524.684h5.238V9.922H1.049V8.846H2.628a.62.62,0,0,0,.524-.684.62.62,0,0,0-.524-.683H1.049V6.809ZM1.049,11.289H12.073v4.617H1.049Zm24.722,4.617H13.122V12.8h2.563a.62.62,0,0,0,.524-.683.62.62,0,0,0-.524-.684H13.122V9.73h2.554a.62.62,0,0,0,.524-.683.62.62,0,0,0-.524-.684H13.122V6.809h2.554a.62.62,0,0,0,.524-.684.62.62,0,0,0-.524-.684H6.753v-3.8H25.771Zm0,0" transform="translate(0 6.452)" fill="#fff"/>
  <path id="Caminho_1684" data-name="Caminho 1684" d="M171.828,35.647a1.757,1.757,0,1,0,1.757-1.757A1.759,1.759,0,0,0,171.828,35.647Zm2.21,0a.453.453,0,1,1-.453-.453A.453.453,0,0,1,174.038,35.647Zm0,0" transform="translate(-164.834 -31.786)" fill="#fff"/>
  <path id="Caminho_1685" data-name="Caminho 1685" d="M245.488,35.647a1.757,1.757,0,1,0,1.757-1.757A1.759,1.759,0,0,0,245.488,35.647Zm2.21,0a.453.453,0,1,1-.453-.453A.453.453,0,0,1,247.7,35.647Zm0,0" transform="translate(-235.496 -31.786)" fill="#fff"/>
  <path id="Caminho_1686" data-name="Caminho 1686" d="M319.156,35.647a1.757,1.757,0,1,0,1.757-1.757A1.759,1.759,0,0,0,319.156,35.647Zm2.21,0a.453.453,0,1,1-.453-.453A.453.453,0,0,1,321.366,35.647Zm0,0" transform="translate(-306.165 -31.786)" fill="#fff"/>
  <path id="Caminho_1687" data-name="Caminho 1687" d="M543.984-5.19a.651.651,0,0,0,.15-.017l.023-.005A.652.652,0,0,0,544.642-6a.652.652,0,0,0-.784-.485l-.022.005a.652.652,0,0,0-.485.784.652.652,0,0,0,.634.5Zm0,0" transform="translate(-521.55 6.499)" fill="#fff"/>
  <path id="Caminho_1688" data-name="Caminho 1688" d="M139.831,331.184H133.6a.652.652,0,0,0-.652.652v1.913a.652.652,0,0,0,.652.652h6.233a.652.652,0,0,0,.652-.652v-1.913A.652.652,0,0,0,139.831,331.184Zm-.652,1.913h-4.929v-.609h4.929Zm0,0" transform="translate(-127.77 -312.493)" fill="#fff"/>
  <path id="Caminho_1689" data-name="Caminho 1689" d="M39.572,331.184H36.66a.652.652,0,0,0,0,1.3h2.912a.652.652,0,1,0,0-1.3Zm0,0" transform="translate(-34.132 -312.685)" fill="#fff"/>
  <path id="Caminho_1690" data-name="Caminho 1690" d="M39.572,368.98H36.66a.652.652,0,0,0,0,1.3h2.912a.652.652,0,1,0,0-1.3Zm0,0" transform="translate(-34.132 -348.32)" fill="#fff"/>
  <path id="Caminho_1691" data-name="Caminho 1691" d="M422.938,170.164h7.628a.652.652,0,0,0,.652-.652v-6.836a.652.652,0,0,0-.652-.652h-7.628a.652.652,0,0,0-.652.652v6.836A.652.652,0,0,0,422.938,170.164Zm.652-6.836h6.324v5.532h-6.324Zm0,0" transform="translate(-406.809 -152.578)" fill="#fff"/>
  <path id="Caminho_1692" data-name="Caminho 1692" d="M206.464,163.328h8.116a.652.652,0,1,0,0-1.3h-8.116a.652.652,0,0,0,0,1.3Zm0,0" transform="translate(-198.014 -152.792)" fill="#fff"/>
  <path id="Caminho_1693" data-name="Caminho 1693" d="M431.191,342.035H423.6a.652.652,0,1,0,0,1.3h7.593a.652.652,0,0,0,0-1.3Zm0,0" transform="translate(-407.435 -322.778)" fill="#fff"/>
  <path id="Caminho_1694" data-name="Caminho 1694" d="M101.3,249.769a.641.641,0,0,0,.15-.018l.022-.005a.652.652,0,1,0-.3-1.269l-.022.005a.652.652,0,0,0,.149,1.287Zm0,0" transform="translate(-95.401 -234.492)" fill="#fff"/>
</svg>
