<svg xmlns="http://www.w3.org/2000/svg" width="36.267" height="36.263" viewBox="0 0 36.267 36.263">
  <g id="Grupo_3734" data-name="Grupo 3734" transform="translate(-2124.747 -148.685)">
    <g id="close" transform="translate(2127.05 150.987)">
      <path id="Caminho_1803" data-name="Caminho 1803" d="M24.727,8.446A15.973,15.973,0,1,0,40.7,24.42,15.992,15.992,0,0,0,24.727,8.446Zm0,29.659A13.686,13.686,0,1,1,38.416,24.42,13.7,13.7,0,0,1,24.727,38.105Z" transform="translate(-8.754 -8.446)" fill="#fff"/>
      <path id="Caminho_1804" data-name="Caminho 1804" d="M46.792,35.851a1.143,1.143,0,0,0-1.617,0l-3.706,3.7-3.706-3.7a1.144,1.144,0,0,0-1.617,1.617l3.706,3.7-3.706,3.7A1.144,1.144,0,0,0,37.763,46.5l3.706-3.705L45.175,46.5a1.144,1.144,0,0,0,1.617-1.618l-3.706-3.7,3.706-3.7A1.143,1.143,0,0,0,46.792,35.851Z" transform="translate(-25.497 -25.197)" fill="#fff"/>
    </g>
    <g id="close-2" data-name="close" transform="translate(2124.747 148.685)">
      <path id="Caminho_1803-2" data-name="Caminho 1803" d="M26.885,8.446A18.132,18.132,0,1,0,45.021,26.578,18.152,18.152,0,0,0,26.885,8.446Zm0,33.667A15.535,15.535,0,1,1,42.424,26.578,15.552,15.552,0,0,1,26.885,42.113Z" transform="translate(-8.754 -8.446)" fill="#707070"/>
      <path id="Caminho_1804-2" data-name="Caminho 1804" d="M48.276,35.9a1.3,1.3,0,0,0-1.836,0L42.234,40.1,38.027,35.9a1.3,1.3,0,0,0-1.836,1.836l4.206,4.2-4.206,4.2a1.3,1.3,0,0,0,1.836,1.836l4.207-4.206,4.207,4.206a1.3,1.3,0,0,0,1.836-1.836l-4.206-4.2,4.206-4.2A1.3,1.3,0,0,0,48.276,35.9Z" transform="translate(-24.104 -23.803)" fill="#707070"/>
    </g>
  </g>
</svg>
