<svg xmlns="http://www.w3.org/2000/svg" width="48.41" height="48.7" viewBox="0 0 48.41 48.7"><defs><style>.a{fill:#fff;}.b{fill:none;}</style></defs><path class="a" d="M2,17.767C2,11.816,7.141,7,13.493,7H35.434a8.105,8.105,0,0,1,8.359,7.831,8.105,8.105,0,0,1-8.359,7.831H17.672a5.069,5.069,0,0,1-5.224-4.894,5.069,5.069,0,0,1,5.224-4.894H33.345v3.915H17.484c-1.149,0-1.149,1.958,0,1.958h17.95a4.066,4.066,0,0,0,4.179-3.915,4.066,4.066,0,0,0-4.179-3.915H13.493a7.1,7.1,0,0,0-7.314,6.852,7.1,7.1,0,0,0,7.314,6.852H33.345v3.915H13.493C7.141,28.535,2,23.719,2,17.767Z" transform="translate(1.308 6.086)"/><path class="b" d="M0,0H48.41V48.7H0Z"/></svg>
