<svg xmlns="http://www.w3.org/2000/svg" width="59" height="59" viewBox="0 0 59 59">
  <g id="Grupo_5538" data-name="Grupo 5538" transform="translate(-673 -317)">
    <path id="Caminho_2183" data-name="Caminho 2183" d="M24.923,0A24.923,24.923,0,1,0,49.846,24.923,24.951,24.951,0,0,0,24.923,0ZM20.572,10.233A6.646,6.646,0,0,0,29.1,7.324a13.893,13.893,0,0,1,6.6,4.568c.243,5.068-2.737,12.074-6.977,13.668a1.973,1.973,0,0,0-1.307,1.848v.536A1.968,1.968,0,0,0,29,29.87l-2.413,2.894V32.4H23.262v.364L20.849,29.87a1.969,1.969,0,0,0,1.582-1.927v-.528a1.953,1.953,0,0,0-1.254-1.835c-3.973-1.47-7.054-8.259-7.054-13.119,0-.106.013-.21.016-.316l.608-.749A4.914,4.914,0,0,1,20.572,10.233ZM31.128,29.908h2.537l-2.487,6.218-2.933-1.954v-.806ZM21.6,33.365v.806l-2.932,1.955-2.487-6.218h2.537ZM1.662,24.923A23.3,23.3,0,0,1,16.615,3.2a12.418,12.418,0,0,0-4.153,9.261c0,5.507,3.481,12.954,8.139,14.676a.293.293,0,0,1,.169.277v.528a.3.3,0,0,1-.3.3H15.074a.932.932,0,0,0-.231.031A11.3,11.3,0,0,0,4.661,36.326,23.1,23.1,0,0,1,1.662,24.923Zm9.969,14.954V44A23.443,23.443,0,0,1,6.4,38.974c-.068-.089-.135-.179-.2-.268-.1-.135-.2-.274-.293-.412a9.667,9.667,0,0,1,8.513-8.318l3.467,8.667,5.375-3.582v1.494h.716L22.516,48.048a23.118,23.118,0,0,1-9.223-2.992V39.877Zm11.915,8.261c-.2-.012-.407-.031-.611-.048C23.139,48.108,23.343,48.126,23.546,48.138Zm1.377.047-.051,0,.056,0Zm1.446-.052c.178-.012.356-.027.535-.043C26.725,48.106,26.548,48.122,26.369,48.133ZM38.216,44V39.877H36.554v5.178a23.1,23.1,0,0,1-9.2,2.988L25.87,36.554h.714V35.06l5.376,3.583,3.467-8.667a9.666,9.666,0,0,1,8.513,8.318A23.444,23.444,0,0,1,38.216,44ZM35.246,28.289l-.033-.043H29.381a.3.3,0,0,1-.3-.3v-.536a.331.331,0,0,1,.229-.292c5.349-2.011,8.686-10.355,7.986-16.19A12.4,12.4,0,0,0,33.236,3.2,23.235,23.235,0,0,1,45.2,36.311,11.318,11.318,0,0,0,35.246,28.289Z" transform="translate(677.66 321.693)" fill="#005b9e"/>
    <g id="Elipse_356" data-name="Elipse 356" transform="translate(673 317)" fill="none" stroke="#005b9e" stroke-width="7">
      <circle cx="29.5" cy="29.5" r="29.5" stroke="none"/>
      <circle cx="29.5" cy="29.5" r="26" fill="none"/>
    </g>
  </g>
</svg>
